<?xml version="1.0" encoding="UTF-8" standalone="no"?>
<svg
   xmlns:dc="http://purl.org/dc/elements/1.1/"
   xmlns:cc="http://creativecommons.org/ns#"
   xmlns:rdf="http://www.w3.org/1999/02/22-rdf-syntax-ns#"
   xmlns:svg="http://www.w3.org/2000/svg"
   xmlns="http://www.w3.org/2000/svg"
   xmlns:xlink="http://www.w3.org/1999/xlink"
   xmlns:sodipodi="http://sodipodi.sourceforge.net/DTD/sodipodi-0.dtd"
   xmlns:inkscape="http://www.inkscape.org/namespaces/inkscape"
   inkscape:version="1.0 (4035a4fb49, 2020-05-01)"
   sodipodi:docname="ionic colum top.svg"
   viewBox="0 0 3592 11976"
   height="11976"
   width="3592"
   id="svg10"
   version="1.1">
  <metadata
     id="metadata16">
    <rdf:RDF>
      <cc:Work
         rdf:about="">
        <dc:format>image/svg+xml</dc:format>
        <dc:type
           rdf:resource="http://purl.org/dc/dcmitype/StillImage" />
        <dc:title></dc:title>
      </cc:Work>
    </rdf:RDF>
  </metadata>
  <defs
     id="defs14" />
  <sodipodi:namedview
     inkscape:current-layer="g18"
     inkscape:window-maximized="0"
     inkscape:window-y="0"
     inkscape:window-x="0"
     inkscape:cy="9749.5563"
     inkscape:cx="-4757.7649"
     inkscape:zoom="0.042084168"
     showgrid="false"
     id="namedview12"
     inkscape:window-height="1705"
     inkscape:window-width="2604"
     inkscape:pageshadow="2"
     inkscape:pageopacity="0"
     guidetolerance="10"
     gridtolerance="10"
     objecttolerance="10"
     borderopacity="1"
     bordercolor="#666666"
     pagecolor="#ffffff" />
  <g
     id="g18"
     inkscape:label="Image"
     inkscape:groupmode="layer">
    
    <path
       id="path22"
       d="M 848,6543.5239 V 1111.0478 l -12.75,9.6678 c -25.77286,19.5426 -51.27017,35.0898 -81.75,49.8479 -51.49582,24.9339 -101.00316,39.1141 -161,46.1144 -21.63078,2.5238 -79.24786,2.512 -103,-0.021 C 388.2571,1205.8593 296.41406,1169.8846 217.10487,1109.9603 194.8585,1093.1514 180.14501,1080.2584 159,1059.0446 108.73967,1008.6207 70.909754,952.83331 43.648868,888.93735 1.9874154,791.28834 -9.7337875,685.2432 9.0045374,575.5 28.90557,458.94726 83.119004,350.85183 164.98132,264.5 235.09853,190.5374 317.8466,137.6504 413,105.98316 452.8218,92.730378 497.20125,82.851546 535.17731,78.78658 L 537.85462,78.5 534.03489,72.167012 C 526.22346,59.215891 521.14397,56.090134 502.87063,52.989515 487.56487,50.392435 481.8118,47.833442 473.83139,40.072727 L 467.58675,34 h -6.09337 c -3.40596,0 -6.62263,-0.529247 -7.29338,-1.2 -1.67494,-1.674942 -1.67494,-29.9250578 0,-31.6 1.75102,-1.75102202 2682.849,-1.75102202 2684.6,0 1.6749,1.6749422 1.6749,29.925058 0,31.6 -0.6948,0.694772 -4.0238,1.2 -7.9069,1.2 h -6.7069 l -3.9888,4.75 c -6.1931,7.37491 -15.0544,11.551215 -29.9969,14.137578 -18.1376,3.139396 -22.2926,5.671194 -31.4716,19.176824 l -4.4615,6.564401 10.6163,1.185183 c 67.7964,7.568665 146.3402,32.624774 209.2368,66.748204 111.4188,60.44824 200.7106,152.79873 255.943,264.71019 32.5871,66.02773 51.2831,131.338 59.6082,208.22762 2.2146,20.45468 2.5391,88.23693 0.5145,107.5 -11.8762,112.99865 -52.9265,211.17275 -124.1869,297 -20.7454,24.9861 -57.6277,60.5755 -84.3124,81.3571 -84.6002,65.8849 -187.6602,105.1487 -295.5165,112.5859 -119.0935,8.212 -235.7401,-26.4041 -329.6704,-97.833 l -12,-9.1253 -0.2501,5432.5076 L 2743.9998,11976 H 2741.4999 2739 V 6541.1743 1106.3486 l -2.4961,-2.3449 c -1.3728,-1.2897 -2.728,-2.113 -3.0115,-1.8295 -0.2835,0.2835 -0.062,3.8478 0.4931,7.9206 0.5546,4.0729 1.4582,14.6052 2.0079,23.4052 0.6639,10.6275 1.0007,1833.6604 1.0031,5429.25 V 11976 h -2.5 -2.5 V 6562.75 c 0,-3734.6353 -0.327,-5418.3665 -1.0442,-5429.75 -0.5717,-9.075 -1.6743,-21.0463 -2.4503,-26.6029 l -1.4107,-10.103 -7.7951,-7.3484 c -4.2873,-4.0416 -12.779,-12.4903 -18.8704,-18.7749 l -11.0752,-11.4265 -2.6437,7.9989 c -3.602,10.8986 -6.3043,23.4443 -8.9469,41.5368 l -2.2231,15.22 -0.2692,5426.25 -0.2692,5426.25 h -4.9987 -4.9987 V 6560.75 c 0,-4911.7779 -0.147,-5416.5031 -1.5694,-5428.7277 -2.7505,-23.6393 -10.2633,-48.0821 -19.5889,-63.7325 -5.0633,-8.4973 -12.9824,-16.5467 -20.0485,-20.3781 -5.7663,-3.1266 -7.0022,-3.4105 -14.792,-3.3977 -7.3538,0.012 -9.2201,0.3914 -13.8402,2.8126 -18.9521,9.9318 -32.0036,35.0382 -39.8657,76.6873 -1.7193,9.1081 -1.8007,225.5177 -2.0433,5430.7361 l -0.2526,5421.25 h -2.5 -2.5 l 0.2526,-5421.25 c 0.2426,-5205.2184 0.324,-5421.628 2.0433,-5430.7361 5.1347,-27.2009 11.6738,-45.2619 21.7282,-60.0139 5.1853,-7.6079 16.4089,-18.1531 22.9863,-21.5968 4.7851,-2.5054 6.5846,-2.8769 13.9914,-2.8892 7.7768,-0.013 9.031,0.274 14.7417,3.3709 7.3364,3.9785 20.0632,16.8369 25.0988,25.3581 9.1645,15.5083 17.1245,41.0894 19.3722,62.2569 0.6664,6.2751 1.3465,11.2742 1.5116,11.1092 0.165,-0.165 0.7549,-6.3321 1.311,-13.7046 2.0286,-26.8978 6.7355,-51.8171 12.5138,-66.251 l 2.6022,-6.5001 -7.6397,-8.8267 c -8.1041,-9.3634 -23.3242,-28.9845 -27.9846,-36.0767 l -2.7928,-4.25 H 1796.522 945.30755 l -9.38661,12.75 c -5.16264,7.0125 -13.92426,18.1528 -19.47027,24.7563 l -10.08365,12.0063 2.38783,5.4483 c 5.97113,13.6244 11.82713,45.8213 13.01159,71.5391 l 0.64479,14 1.24672,-11 c 5.31022,-46.8526 22.53981,-81.5334 46.34435,-93.2848 4.59612,-2.269 6.81473,-2.7152 13.5,-2.7152 10.10635,0 16.40089,2.7363 25.3466,11.0185 17.0736,15.8071 27.7991,40.0826 33.9151,76.7613 1.6038,9.6186 1.7199,329.2172 1.9724,5429.4702 l 0.2683,5419.25 h -2.5 -2.5 l -0.2683,-5419.25 c -0.2525,-5100.253 -0.3686,-5419.8516 -1.9724,-5429.4702 -4.7406,-28.4302 -12.2603,-49.2906 -23.4554,-65.0681 -16.74864,-23.604 -43.14039,-24.1515 -60.51809,-1.2555 -12.04501,15.8699 -21.157,42.0256 -24.74075,71.0176 C 928.31869,1137.8694 928,2788.7897 928,6558.2238 V 11976 h -5 -5 l -0.0145,-5411.75 c -0.01,-3618.7069 -0.348,-5417.5482 -1.02102,-5429.25 -1.01611,-17.667 -3.82588,-40.0419 -6.53,-52 -2.20727,-9.7609 -6.58993,-23.1188 -7.47729,-22.7899 -0.43021,0.1594 -9.08399,8.4467 -19.23063,18.4161 l -18.44844,18.1263 -1.17577,9.3737 c -0.64668,5.1556 -1.60193,14.5488 -2.12278,20.8738 -0.59445,7.2187 -0.95306,2028.8242 -0.96328,5430.25 L 861,11976 h -2.50119 -2.5012 l 0.28316,-5426.75 c 0.22132,-4241.5922 0.54761,-5428.4971 1.49403,-5434.75 0.66597,-4.4 1.43619,-9.2793 1.71161,-10.8429 l 0.50074,-2.8429 -3.42138,2.8429 -3.42138,2.8429 -0.0722,5434.75 L 853,11976 H 850.5 848 Z M 596.5,1211.1305 c 58.01959,-7.0043 106.2926,-21.0148 157,-45.567 47.63291,-23.0635 87.97529,-51.112 125.53416,-87.2791 72.29542,-69.6164 122.00764,-164.37082 139.44194,-265.7844 5.1438,-29.92094 5.9989,-41.49101 5.9868,-81 -0.012,-39.17598 -0.9638,-50.96785 -6.538,-81 C 996.4873,535.00145 927.50527,431.28391 829.79202,367.63392 806.62345,352.54201 775.9512,336.55032 757,329.6821 751.775,327.78848 742.775,324.35579 737,322.05391 714.22073,312.97422 676.95548,304.00266 645.23785,299.9623 614.49396,296.04599 571.32773,295.84473 542.5,299.48331 430.43327,313.62814 329.89003,374.82039 268.07964,466.5 231.64915,520.53513 210.41575,577.88063 202.35645,644 c -2.50044,20.51388 -2.50233,65.07898 -0.004,84.5 8.59263,66.78439 32.51542,124.74496 73.26178,177.5 11.05192,14.30911 40.25688,43.7868 54.88534,55.39786 89.42161,70.97674 208.58877,95.35314 312.5,63.92394 32.56101,-9.8485 66.09769,-26.18757 93.05073,-45.33437 C 804.52371,931.34584 850.98742,855.14727 864.01762,770.12701 877.94963,679.22259 850.15129,589.44922 788,524.63185 743.7897,478.52507 681.57491,448.07136 616.06138,440.46906 600.56746,438.67112 569.93922,438.41521 556,439.96723 477.83788,448.66996 408.79073,491.38289 367.47794,556.588 c -7.08371,11.18041 -19.16728,35.79031 -23.98401,48.84684 -4.74531,12.86293 -10.80118,36.86292 -13.13749,52.06516 -2.85111,18.55196 -2.59773,56.51159 0.49283,73.83312 7.70939,43.20848 24.80981,80.29206 52.00482,112.77648 28.83909,34.44825 71.65824,60.79608 117.75306,72.45675 61.83268,15.64192 123.19513,5.5442 173.96532,-28.62747 75.65911,-50.92355 109.00857,-151.91854 77.82891,-235.6959 C 729.67377,591.17563 680.35545,549.1884 615,535.26609 c -11.36382,-2.42078 -14.54512,-2.6675 -35,-2.71445 -19.57052,-0.0449 -23.95784,0.24392 -33.69704,2.21843 -67.75141,13.7358 -117.79709,63.78148 -131.53289,131.53289 -1.94516,9.59442 -2.26376,14.20275 -2.22601,32.19704 0.0372,17.74726 0.37842,22.49979 2.20269,30.68276 12.07476,54.16246 48.62953,94.93012 100.27081,111.82687 27.72759,9.07231 60.96469,9.40411 87.73492,0.87582 21.09305,-6.71969 39.11036,-17.62192 54.26153,-32.8335 18.77238,-18.84723 30.77264,-41.44437 36.67021,-69.05195 1.40533,-6.57863 1.79827,-12.68181 1.73831,-27 -0.085,-20.30794 -1.45853,-27.83786 -8.3136,-45.57769 -11.22696,-29.05357 -36.47767,-54.30428 -65.53124,-65.53124 -17.78525,-6.87262 -25.24851,-8.22321 -45.57769,-8.24792 -16.89726,-0.0205 -19.34705,0.20613 -28.27735,2.61651 -11.14537,3.00826 -25.61541,9.55573 -34.59526,15.65383 -7.65297,5.19703 -8.0672,6.30255 -0.56281,1.50205 7.25002,-4.63778 16.86961,-8.68757 27.43542,-11.55013 11.86157,-3.21363 36.60442,-3.25909 48.17543,-0.0885 18.26349,5.00437 32.28645,12.91108 45.80515,25.82677 28.8935,27.60468 39.22669,64.85102 28.37774,102.28849 -6.78185,23.40274 -22.55611,43.70381 -45.92729,59.10722 -21.89071,14.42767 -36.98828,18.83159 -60.72156,17.71228 -25.9657,-1.22459 -48.32829,-10.93058 -67.73559,-29.39915 -11.41872,-10.86638 -17.69934,-19.20448 -23.96259,-31.8125 -7.13331,-14.35947 -10.02688,-25.86103 -10.71857,-42.60485 -1.47272,-35.65057 10.78087,-66.22937 37.07696,-92.52547 20.21066,-20.21065 41.59413,-31.39754 68.66956,-35.92488 13.11525,-2.19302 36.17506,-1.51661 49.09033,1.43996 49.33807,11.29449 90.15503,47.40008 106.74848,94.42683 18.78284,53.23158 3.94901,116.55151 -37.37805,159.55264 -16.33837,17.00021 -28.93044,26.41704 -48.09064,35.96405 -39.4928,19.6782 -85.50635,22.16517 -130.90936,7.0755 -60.62686,-20.14932 -109.01847,-72.49075 -124.0237,-134.14676 -7.49497,-30.79656 -7.12637,-64.6052 1.0563,-96.88563 7.58612,-29.92707 22.79126,-59.65528 42.6421,-83.37139 34.33408,-41.01947 78.03482,-66.52073 130.3253,-76.05043 12.2636,-2.23499 45.30313,-3.05593 59.76455,-1.48498 72.60413,7.88699 136.50602,46.93392 178.02992,108.78432 13.66226,20.3501 26.60744,49.36724 32.74112,73.39048 12.25248,47.98823 8.74554,104.75017 -9.54556,154.50056 -5.43627,14.78621 -18.35545,40.3342 -27.23611,53.86003 C 754.48537,913.79333 716.54184,947.38509 671.5,969.55148 618.85714,995.45855 561.20216,1003.5721 501.40145,993.48887 428.62362,981.21747 364.67778,944.9852 316.10803,888.5 288.59176,856.49938 270.46961,824.4572 257.0058,784 242.30734,739.8328 237.89401,695.22262 243.50172,647.5 c 11.37021,-96.7625 62.072,-183.43049 141.83559,-242.44913 50.09429,-37.06575 111.86196,-60.32607 175.53141,-66.10122 16.70051,-1.51482 61.04621,-0.68093 76.90649,1.44617 78.252,10.49479 145.44337,39.66122 204.11944,88.60418 82.20394,68.56807 132.62437,165.56957 141.18206,271.61354 1.49062,18.47129 0.63571,62.96445 -1.54417,80.36547 -10.5271,84.03307 -41.94297,159.69069 -92.83352,223.56739 C 796.39415,1120.4053 656.81033,1182.0779 509.82955,1171.943 363.76734,1161.8714 232.01507,1089.5973 143.67115,971.0829 76.244633,880.62948 41.484274,766.94537 46.907089,654.61506 47.510761,642.11037 48.468294,627.51892 49.03494,622.18963 61.631121,503.72289 108.69733,396.73044 187.02766,308.5 200.29706,293.5535 228.78582,265.73704 244,252.87216 331.66988,178.73979 435.49426,135.15414 552.5,123.36334 c 42.37861,-4.27054 164.86123,-0.21476 232,7.68224 9.35,1.09977 21.1553,2.44299 26.23399,2.98495 8.20617,0.8757 31.1704,5.05314 60.76601,11.05401 5.5,1.11519 17.65,3.57849 27,5.47399 19.28503,3.90961 53.50211,12.15475 83,20.00014 11,2.9256 24.725,6.50096 30.5,7.94522 12.0675,3.01796 45.0256,12.56929 65.5,18.98208 7.7,2.41171 17.825,5.34714 22.5,6.52318 4.675,1.17605 15.925,4.32647 25,7.00095 14.9058,4.39286 24.4806,7.06125 58,16.16386 20.6812,5.61624 106.8246,24.24097 153.5,33.18765 94.0298,18.02351 177.7635,27.85195 273.5,32.10274 128.7392,5.71613 254.5706,5.5562 384,-0.48807 108.2702,-5.05614 203.6328,-18.36998 337.5,-47.11932 57.3336,-12.31297 82.3264,-18.51835 135,-33.51862 8.8,-2.50605 21.625,-6.05106 28.5,-7.87781 6.875,-1.82675 15.875,-4.49443 20,-5.92818 11.4271,-3.97178 45.7442,-13.94399 62,-18.01662 7.975,-1.998 23.5,-6.02941 34.5,-8.95869 27.2669,-7.26113 67.665,-17.01003 80.9344,-19.53113 6.0139,-1.14261 14.3389,-2.9395 18.5,-3.99309 4.1611,-1.05359 11.8406,-2.63827 17.0656,-3.52152 5.225,-0.88325 17.5769,-3.16536 27.4487,-5.07135 9.8718,-1.90599 22.0218,-3.89954 27,-4.43012 4.9782,-0.53057 16.7013,-1.86139 26.0513,-2.95737 40.4588,-4.74248 83.9721,-7.34375 151.6998,-9.06875 42.5091,-1.08269 62.1814,-0.52016 90.8002,2.59645 214.6828,23.37914 398.3923,172.17035 466.9671,378.20907 13.0151,39.10473 21.5075,79.63484 26.236,125.21077 1.7425,16.79512 1.7376,79.44575 -0.01,95.5 -7.0245,64.62399 -23.1297,120.29634 -50.6343,175.03273 -45.5233,90.59498 -119.0044,166.41067 -208.3317,214.95057 -56.6085,30.7606 -118.5627,49.7851 -186.2296,57.186 -22.7818,2.4917 -74.1378,2.4952 -95.1994,0.01 -84.3031,-9.9615 -159.362,-40.3392 -223.8006,-90.5762 -28.5272,-22.2402 -60.3683,-54.4864 -82.3206,-83.36821 -74.9032,-98.54702 -105.2888,-227.92939 -81.124,-345.42776 27.6799,-134.59097 127.6304,-247.69256 258.4446,-292.4499 25.4485,-8.70706 50.9622,-14.61774 80,-18.53333 19.2038,-2.58952 72.8748,-2.57876 91,0.0182 68.5938,9.82826 128.8256,36.39108 179.5,79.16129 14.0672,11.87303 38.7768,37.07018 49.1995,50.17035 42.4003,53.29259 67.6816,114.75273 74.7945,181.82971 1.94,18.29424 1.9421,53.23811 0,70.00613 -8.7671,75.86529 -44.1973,144.54807 -100.9984,195.78961 -48.1842,43.46805 -106.0396,69.96279 -171,78.30916 -15.9887,2.05429 -52.6747,2.34798 -67,0.53636 -64.0534,-8.10035 -117.8889,-34.38677 -163.0158,-79.5962 -33.2818,-33.34273 -54.6524,-68.02216 -68.3817,-110.96719 -9.0624,-28.3473 -12.4504,-50.39568 -12.5353,-81.57787 -0.062,-22.72388 0.6634,-30.69591 4.5331,-49.8284 10.7793,-53.29601 40.4803,-102.20838 84.3997,-138.99137 34.675,-29.04073 82.2031,-49.18385 127.7106,-54.12571 14.2409,-1.54649 40.9417,-1.29951 54.005,0.49953 37.2347,5.12785 72.2637,19.7383 101.5046,42.33714 64.4075,49.7774 95.996,130.11334 81.2358,206.59895 -4.5103,23.37201 -16.7217,51.82854 -30.6866,71.50986 -8.8285,12.44239 -33.827,37.44092 -46.2694,46.26942 -12.421,8.81333 -35.6959,20.47408 -50.0599,25.0801 -59.4514,19.06393 -117.84,8.57888 -163.1479,-29.29706 -32.4317,-27.11177 -53.0361,-64.16067 -58.8767,-105.86632 -0.726,-5.18464 -0.9594,-14.78246 -0.6199,-25.5 0.7741,-24.43959 3.9631,-37.23627 14.7493,-59.18614 7.3309,-14.91839 15.5589,-25.90551 29.7475,-39.72271 22.3374,-21.75265 48.2139,-34.71497 78.7076,-39.42697 14.4846,-2.23821 36.762,-1.35415 49.5851,1.96774 24.3381,6.30492 42.389,16.79248 60.489,35.14389 40.436,40.99778 47.7539,101.62633 17.7248,146.84885 -10.5319,15.86056 -31.0095,32.95668 -48.1177,40.17201 -14.9813,6.31831 -23.7928,8.01258 -41.6812,8.01436 -13.6428,10e-4 -17.1474,-0.3309 -23.7885,-2.25529 -28.9982,-8.40283 -58.2887,-32.47835 -71.4661,-58.74188 -13.2117,-26.33198 -13.4632,-59.06851 -0.6633,-86.35152 5.4424,-11.60053 11.5557,-20.25402 20.934,-29.63235 32.1199,-32.11982 78.5822,-39.55022 118.4839,-18.94827 8.8872,4.58862 8.0393,3.53518 -2.2618,-2.81019 -14.012,-8.63118 -31.8572,-13.71291 -50.8431,-14.47842 -88.1125,-3.55268 -148.0042,81.54168 -117.3425,166.72075 16.7027,46.40049 54.8685,77.91364 104.9474,86.65414 11.3649,1.98358 40.1591,1.3257 51.5,-1.17665 11.0513,-2.43845 25.3568,-7.20062 34.9788,-11.64411 11.2877,-5.21275 28.7065,-16.9686 38.2894,-25.84136 16.3232,-15.11352 31.6675,-39.72989 39.1039,-62.73269 14.926,-46.17089 7.1455,-98.03747 -21.1154,-140.75933 -23.4735,-35.48477 -60.5217,-60.07163 -104.7567,-69.5213 -14.3606,-3.06776 -42.8296,-3.82351 -58.5,-1.55295 -72.4732,10.50098 -129.417,57.94879 -151.3062,126.07425 -22.3655,69.60806 -2.3501,150.61916 50.295,203.56572 48.3063,48.58298 118.3128,69.74635 188.5112,56.98804 45.413,-8.25364 89.5023,-31.1647 121.3593,-63.0645 30.6148,-30.65591 53.4026,-73.26657 62.0302,-115.98926 6.5563,-32.46571 6.1937,-69.0113 -1.007,-101.5 -12.6916,-57.26279 -43.941,-108.40176 -87.9568,-143.93954 -41.3183,-33.35972 -94.5163,-53.7694 -146.9257,-56.36867 -37.5286,-1.86125 -70.2502,2.57638 -105.5934,14.3203 -60.1994,20.00322 -110.3191,58.0361 -144.9419,109.98791 -41.6772,62.53705 -56.7877,135.71118 -43.8795,212.49177 18.66,110.99335 93.8166,202.53648 198.9148,242.28458 65.6228,24.8186 139.0472,27.1551 210.3607,6.6941 36.9462,-10.6004 74.0571,-28.32443 105.5248,-50.39807 32.078,-22.50178 59.8213,-50.17221 83.3379,-83.11894 21.4136,-30.00046 40.4178,-69.42394 50.6773,-105.12815 24.9074,-86.68082 16.5113,-181.39724 -23.7054,-267.41997 -20.0383,-42.86167 -53.662,-88.64277 -87.6988,-119.40848 -63.95,-57.80411 -140.6377,-92.00241 -226.4965,-101.00435 -17.6191,-1.8473 -57.1671,-2.10409 -75,-0.487 -35.3673,3.20711 -75.8811,11.56584 -101.1968,20.87872 -4.2918,1.57881 -14.1032,5.19053 -21.8032,8.02605 -26.6534,9.81507 -62.9184,28.94209 -88.8835,46.87922 -60.1853,41.57716 -108.6177,97.77729 -141.0831,163.71052 -38.9304,79.06278 -52.8222,164.60163 -41.4128,255 1.1106,8.8 2.6579,16.98903 3.4383,18.19785 0.7804,1.20882 1.0268,2.44018 0.5475,2.73636 -1.087,0.67184 0.8684,11.35192 5.8709,32.06579 20.5337,85.0243 65.2058,165.21615 126.1399,226.43625 74.8341,75.1853 174.3014,124.2204 279.9244,137.9961 75.552,9.8538 157.4454,1.7589 232.0444,-22.9369 138.7449,-45.9311 250.4395,-143.5509 314.0086,-274.43979 28.2059,-58.07602 44.9693,-117.7891 52.0916,-185.55566 2.0246,-19.26307 1.7001,-87.04532 -0.5145,-107.5 -8.3251,-76.88962 -27.0211,-142.19989 -59.6082,-208.22762 C 3478.8606,317.65632 3409.826,238.88066 3323.4828,181.24778 3233.9207,121.46633 3132.2671,87.506522 3023.5,81.031392 2999.9569,79.629824 591.89577,79.61784 569,81.019177 448.85293,88.372784 337.5096,129.0012 242.44469,200.17696 122.02491,290.3361 39.561655,425.82174 14.004537,575.5 -4.7337875,685.2432 6.9874154,791.28834 48.648868,888.93735 75.369003,951.56586 113.78025,1008.6063 161.5,1056.5204 c 56.55693,56.7873 126.35553,100.6345 202.5,127.2097 47.17712,16.4653 90.48123,25.2278 146.5,29.6441 2.75,0.2168 19.4,0.2624 37,0.1014 24.61991,-0.2253 35.92067,-0.7661 49,-2.3451 z m -24,-44.1524 c 38.16023,-2.7633 73.34973,-9.8131 109.5,-21.9372 90.90652,-30.4881 168.17623,-88.738 220.85846,-166.49454 40.29985,-59.48068 64.50791,-124.39799 73.67408,-197.56735 2.17988,-17.40102 3.03479,-61.89418 1.54417,-80.36547 C 969.65494,596.2539 920.08287,499.27885 841.71642,433.8596 783.31041,385.10304 715.9373,355.87855 637.77521,345.39582 621.91493,343.26872 577.56923,342.43483 560.86872,343.94965 458.84794,353.20346 366.79723,405.7988 309.43095,487.61454 254.32637,566.20464 233.79264,664.6403 253.65419,755 c 3.25556,14.81109 12.74776,43.30819 19.31943,58 41.8344,93.52616 126.05331,158.22704 228.42783,175.48887 59.80071,10.08327 117.45569,1.96968 170.09855,-23.93739 44.50745,-21.90339 78.92139,-52.18377 105.75392,-93.05148 8.88066,-13.52583 21.79984,-39.07382 27.23611,-53.86005 18.2911,-49.75039 21.79804,-106.51233 9.54556,-154.50056 -8.09541,-31.70658 -25.26603,-65.92395 -46.07367,-91.81494 C 753.42471,553.23577 729.34479,532.33748 708.5,519.71912 678.10591,501.3201 644.05119,489.85209 608.26455,485.96459 593.80313,484.39364 560.7636,485.21458 548.5,487.44957 479.55375,500.01471 424.96801,540.69461 395.46305,601.5 c -13.82274,28.48665 -20.04065,53.80572 -21.12006,86 -2.76968,82.60797 46.85357,154.712 124.15701,180.40378 51.97912,17.27524 104.68112,11.36071 147.90936,-16.59928 58.92119,-38.11017 86.31789,-116.23702 63.46869,-180.99291 -16.18853,-45.87919 -53.05306,-78.27945 -101.74848,-89.42683 -12.91527,-2.95657 -35.97508,-3.63298 -49.09033,-1.43996 -52.37689,8.75805 -90.83509,47.20976 -99.59106,99.57426 -2.4047,14.38115 -1.5806,33.90406 1.97498,46.78736 7.59285,27.51199 24.10389,49.15463 47.62806,62.43075 6.55744,3.70077 5.58335,2.61906 -2.49545,-2.77115 -14.64222,-9.76935 -30.37588,-29.23625 -37.24293,-46.07982 -5.77682,-14.16941 -7.60864,-25.291 -6.9814,-42.3862 0.83509,-22.75987 6.31259,-39.6523 18.96908,-58.5 5.65014,-8.41404 21.72079,-24.57363 30.41689,-30.58525 9.93964,-6.87126 24.22744,-13.47759 36.00524,-16.64794 8.82062,-2.37434 11.53868,-2.63495 27.77735,-2.6634 19.74736,-0.0346 26.177,1.05066 43.5861,7.35691 27.05718,9.80115 53.16959,32.93516 67.76953,60.03968 5.15255,9.56562 10.59402,25.83031 12.71316,38 2.00865,11.53515 1.46364,35.3876 -1.07391,47 -3.9236,17.95526 -11.68797,36.1185 -21.75302,50.887 -7.47094,10.96214 -27.26158,30.42708 -38.5722,37.9374 -23.86113,15.84394 -48.28388,23.16302 -77.32029,23.17158 -30.442,0.009 -58.22375,-8.46157 -84.30615,-25.70458 -13.75909,-9.09611 -34.73851,-30.07553 -43.83462,-43.83462 -11.17724,-16.9071 -18.4791,-34.16621 -22.96185,-54.27402 -1.82427,-8.18297 -2.16546,-12.9355 -2.20269,-30.68276 -0.051,-24.3155 1.60165,-34.99992 8.51504,-55.04951 8.74103,-25.34996 20.3793,-43.89813 40.34037,-64.29135 20.58601,-21.03171 40.87769,-34.0751 67.05102,-43.10004 20.40576,-7.03621 30.58142,-8.56706 56.54951,-8.50746 20.45488,0.0469 23.63618,0.29367 35,2.71445 27.9096,5.94542 51.86696,16.41664 74.28428,32.46795 9.64045,6.90278 28.71764,24.97794 36.79266,34.86012 42.2963,51.76205 54.03091,120.3095 31.93865,186.56882 -18.38129,55.12934 -62.37308,103.2312 -115.98848,126.82509 -43.78654,19.26862 -92.62581,22.92182 -141.41996,10.57828 C 419.49717,901.04784 353.4568,836.54353 331.48615,756.37902 325.01373,732.76305 323.56232,721.37508 323.5359,694 c -0.0271,-28.08221 1.25559,-38.98427 7.47883,-63.56516 4.94469,-19.53085 9.32935,-31.29257 18.98803,-50.93484 13.00608,-26.44968 27.92534,-47.15234 49.63222,-68.872 29.41838,-29.43568 61.41593,-49.67298 99.06459,-62.65479 29.42701,-10.14686 53.20138,-14.06377 85.36181,-14.06366 78.72386,2.8e-4 150.74933,30.77673 206.4411,88.21218 14.76057,15.22271 23.10495,25.52178 34.3359,42.37913 48.38738,72.62818 60.54282,163.64363 33.6554,251.99914 -11.2141,36.85096 -31.9029,75.59931 -57.13022,107 -16.64049,20.71259 -43.47052,45.97117 -65.31283,61.48743 -19.5151,13.86307 -50.76119,30.49447 -72.05073,38.35047 -40.3828,14.9016 -81.87423,21.7415 -123.13373,20.2988 C 463.39241,1040.9275 390.87742,1014.304 330.5,966.40172 315.75652,954.70453 281.63926,920.29785 270.60636,906 229.83227,853.15969 205.94466,795.27779 197.35288,728.5 c -2.49876,-19.42102 -2.49687,-63.98612 0.004,-84.5 9.39023,-77.03843 37.46741,-144.20067 85.28222,-204 12.63442,-15.80116 41.24007,-44.85966 56.68585,-57.58323 67.09849,-55.27284 149.22067,-86.96477 233.90091,-90.26513 58.46533,-2.27866 117.11311,6.92229 168.71061,26.46815 8.01018,3.03437 21.08896,7.90033 29.06396,10.81326 7.975,2.91292 18.55,6.9791 23.5,9.03594 4.95,2.05685 20.475,7.68834 34.5,12.51443 14.025,4.82609 31.8,11.1074 39.5,13.95847 18.3437,6.79209 89.21608,30.49568 97.3096,32.54564 3.47028,0.87896 20.79528,6.03067 38.49997,11.44823 17.7047,5.41757 39.6154,11.89205 48.6904,14.38775 63.2812,17.40279 138.9886,36.46292 163.8106,41.24099 10.2791,1.97868 25.2144,5.09739 33.1894,6.93046 36.4177,8.37071 140.2294,25.68673 194.5,32.44303 14.536,1.80962 72.6121,7.11115 93.5,8.53522 50.1702,3.42044 84.501,5.38459 133,7.60923 36.6248,1.67998 170.6579,2.31532 214.5,1.01677 43.651,-1.29289 90.0242,-3.41424 123,-5.62664 12.1,-0.81181 29.425,-1.93549 38.5,-2.49708 22.3609,-1.38375 79.5248,-6.51056 101,-9.0583 16.2698,-1.93019 69.0212,-9.70134 105,-15.46824 20.45,-3.27785 66.1719,-11.84082 82.5,-15.45093 7.15,-1.58084 25.3513,-5.41182 40.4473,-8.51329 26.9902,-5.54511 93.5629,-21.89817 120.0527,-29.48997 7.425,-2.12796 20.025,-5.50465 28,-7.50376 14.9533,-3.74837 49.8007,-13.92599 77,-22.48879 8.525,-2.68382 19.775,-6.05268 25,-7.48635 12.4999,-3.42982 79.7561,-25.97829 112,-37.54941 14.025,-5.03304 31.125,-11.09252 38,-13.46552 6.875,-2.373 25.1,-9.13578 40.5,-15.0284 49.5858,-18.97342 69.3146,-25.27161 96.7256,-30.87858 50.7619,-10.38346 105.7166,-11.6385 154.2744,-3.52327 117.1162,19.57305 221.8494,93.99494 280.5217,199.33464 45.2811,81.29729 60.5873,180.018 41.3343,266.59468 -12.177,54.75738 -35.66,103.32567 -71.7779,148.45344 -10.4093,13.00604 -38.139,40.81822 -51.6926,51.84638 -83.1716,67.67418 -192.081,94.90768 -292.618,73.17088 -76.0177,-16.4355 -143.5619,-60.62349 -191.589,-125.33906 -58.4477,-78.75714 -77.0348,-185.30012 -48.0372,-275.35442 28.4658,-88.40275 97.3494,-158.21834 184.7653,-187.26513 35.3432,-11.74392 68.0648,-16.18155 105.5934,-14.3203 114.8787,5.69747 214.5478,91.00121 239.8825,205.30821 3.9454,17.80102 5.4443,32.2575 5.4955,53 0.05,20.23325 -0.9399,30.92823 -4.4885,48.5 -17.017,84.26614 -83.4353,155.62221 -166.6422,179.031 -84.5443,23.78502 -170.2041,-2.04949 -225.4649,-67.99892 -45.4888,-54.28671 -60.8318,-127.97429 -40.089,-192.53208 9.0951,-28.30657 25.0089,-54.15604 46.8062,-76.02924 36.8816,-37.01011 83.1431,-56.48508 134.1283,-56.46486 30.4804,0.0121 57.9791,7.11021 83.578,21.57365 70.3427,39.74376 104.8601,123.3859 81.1658,196.67978 -15.0852,46.66314 -54.0953,85.73325 -100.3721,100.52645 -15.9305,5.09247 -23.3541,6.3108 -42,6.89287 -19.2463,0.60082 -27.9776,-0.41924 -44.5,-5.19883 -35.2081,-10.18494 -68.2443,-38.08471 -85.2409,-71.98776 -29.4212,-58.68614 -14.0649,-125.02034 37.8537,-163.51562 31.5159,-23.36761 74.1868,-30.3349 109.5084,-17.88044 17.4582,6.15583 29.4887,13.84723 43.5036,27.81294 19.0378,18.97104 29.6235,40.35098 32.9112,66.47076 3.1985,25.41066 -3.9496,52.74783 -19.024,72.75533 -6.4871,8.61003 -20.4098,21.75349 -28.0169,26.44888 -7.3079,4.51067 -7.8825,5.57739 -0.9286,1.72378 35.5083,-19.67742 56.415,-60.44479 52.1214,-101.63523 -5.5721,-53.4553 -39.4155,-92.96451 -91.1028,-106.3544 -12.8231,-3.32189 -35.1005,-4.20595 -49.5851,-1.96774 -36.7832,5.68388 -69.4974,24.93938 -91.1483,53.64968 -6.7464,8.94606 -16.7147,28.03158 -20.3696,39 -4.6232,13.87464 -6.1271,23.02529 -6.6865,40.68614 -0.3395,10.71754 -0.1061,20.31536 0.6199,25.5 7.58,54.1261 39.0575,98.65687 86.6499,122.58208 46.9518,23.60319 105.2657,22.32686 156.3747,-3.42261 19.1188,-9.63231 30.8332,-18.11147 46.0636,-33.34187 15.2203,-15.22025 23.7093,-26.94437 33.3169,-46.01362 20.7216,-41.12835 25.5737,-85.42727 14.5667,-132.99012 -7.041,-30.425 -23.3847,-62.58551 -44.8264,-88.20784 -31.1359,-37.20664 -79.4959,-63.16643 -130.8453,-70.23811 -13.0633,-1.79904 -39.7641,-2.04602 -54.005,-0.49953 -54.6212,5.93156 -108.3909,32.14422 -145.7343,71.04538 -35.3603,36.83528 -56.4323,80.99045 -64.6165,135.4001 -1.9856,13.20067 -1.6995,50.76065 0.5029,66 8.7999,60.89296 34.7482,113.55681 76.6334,155.53327 42.4544,42.54682 97.9209,69.1936 160.5039,77.10799 14.3253,1.81162 51.0113,1.51793 67,-0.53636 81.9725,-10.53214 155.3481,-51.54444 203.8922,-113.96273 29.7095,-38.20066 50.2182,-83.52605 59.5649,-131.64217 6.8233,-35.12556 6.8226,-80.79651 0,-119 -8.6138,-48.21951 -28.5908,-96.44959 -56.6752,-136.82971 -16.6518,-23.94222 -43.8106,-53.17501 -64.9502,-69.9101 C 3168.32,378.87841 3111.7745,354.76296 3046,345.33865 c -18.1252,-2.59701 -71.7962,-2.60777 -91,-0.0182 -47.764,6.44073 -88.1435,18.70638 -129.0273,39.19327 -113.6632,56.95672 -191.0478,165.5649 -208.9727,293.28996 -8.6275,61.47602 -1.8952,129.65428 18.9785,192.19637 38.7416,116.07798 122.1907,208.73715 233.0925,258.81815 43.0328,19.4327 85.4372,31.0332 134.7296,36.8577 21.0616,2.4887 72.4176,2.4852 95.1994,-0.01 67.6669,-7.4009 129.6211,-26.4254 186.2296,-57.186 88.4787,-48.0788 158.1319,-119.99934 203.3317,-209.95062 27.5046,-54.73639 43.6098,-110.40874 50.6343,-175.03273 1.7451,-16.05425 1.75,-78.70488 0.01,-95.5 -7.5037,-72.32522 -24.6045,-133.12179 -54.7088,-194.5 -43.1639,-88.00462 -106.3832,-160.40933 -186.9943,-214.16319 -64.8701,-43.2573 -138.0599,-72.29614 -215,-85.30358 -40.3454,-6.82076 -68.2133,-8.4271 -122.3002,-7.04952 -67.7277,1.725 -111.241,4.32627 -151.6998,9.06875 -9.35,1.09598 -21.0731,2.4268 -26.0513,2.95737 -4.9782,0.53058 -17.1282,2.52413 -27,4.43012 -9.8718,1.90599 -22.2237,4.1881 -27.4487,5.07135 -5.225,0.88325 -12.9045,2.46793 -17.0656,3.52152 -4.1611,1.05359 -12.4861,2.85048 -18.5,3.99309 -13.2694,2.5211 -53.6675,12.27 -80.9344,19.53113 -11,2.92928 -26.525,6.96069 -34.5,8.95869 -16.2558,4.07263 -50.5729,14.04484 -62,18.01662 -4.125,1.43375 -13.125,4.10143 -20,5.92818 -6.875,1.82675 -19.7,5.37176 -28.5,7.87781 -52.6736,15.00027 -77.6664,21.20565 -135,33.51862 -97.7889,21.00116 -149.9491,29.73183 -233.5,39.08366 -150.83,16.88236 -449.2692,16.88786 -603.5,0.0111 -60.5492,-6.62561 -101.0152,-12.66736 -158,-23.59014 -46.6754,-8.94668 -132.8188,-27.57141 -153.5,-33.18765 -33.5194,-9.10261 -43.0942,-11.771 -58,-16.16386 -9.075,-2.67448 -20.325,-5.8249 -25,-7.00095 -4.675,-1.17604 -14.8,-4.11147 -22.5,-6.52318 -20.4744,-6.41279 -53.4325,-15.96412 -65.5,-18.98208 -5.775,-1.44426 -19.5,-5.01962 -30.5,-7.94522 -29.49789,-7.84539 -63.71497,-16.09053 -83,-20.00014 -9.35,-1.8955 -21.5,-4.3588 -27,-5.47399 -29.59561,-6.00087 -52.55984,-10.17831 -60.76601,-11.05401 C 805.6553,138.48857 793.85,137.14535 784.5,136.04558 737.09168,130.46931 669.34348,126.94751 605.84514,126.75845 566.65432,126.64176 551.15733,127.68377 519,132.5979 325.26084,162.20419 163.15029,290.65171 90.870692,471.82412 53.86851,564.57193 42.512088,666.29474 58.58685,761 c 17.734454,104.48342 72.85011,206.51598 149.25173,276.3014 68.05567,62.1623 148.89126,103.2836 238.16142,121.1534 41.14135,8.2355 87.41622,11.3534 126.5,8.5233 z M 2637.3374,990.5 2630.7696,980 H 1795.8848 C 1336.6982,980 961,980.3505 961,980.77888 c 0,0.42838 -2.7,4.95396 -6,10.05684 -3.3,5.10288 -6,9.47738 -6,9.72108 0,0.2438 381.3537,0.4432 847.4527,0.4432 h 847.4526 z m -15.7115,-26.81231 c -3.3692,-6.22178 -8.8259,-17.00794 -12.1259,-23.96926 l -6,-12.65694 -807.2748,-0.0308 L 988.9505,927 l -0.88837,2.25 c -1.94531,4.92696 -11.28965,23.87118 -17.0173,34.5 L 964.98244,975 h 831.38476 831.3847 z M 2600.7194,920.75 c -0.272,-0.6875 -2.1675,-5.41278 -4.2122,-10.50062 l -3.7176,-9.25063 -796.5739,0.25063 -796.57381,0.25062 -3.82094,9.42811 C 993.71943,916.11357 992,920.72607 992,921.17811 992,921.63015 1354.0731,922 1796.607,922 c 643.2827,0 804.5078,-0.25063 804.1124,-1.25 z m -14.874,-40 c -5.6459,-17.54585 -12.8032,-45.66599 -15.4008,-60.50685 l -1.7863,-10.20603 -39.6335,-38.91307 -39.6336,-38.91306 -1.6027,11.6445 c -3.6512,26.52635 -14.0129,47.88662 -32.7366,67.48528 -13.4276,14.0551 -30.7351,25.25407 -48.2558,31.22435 -23.2081,7.90828 -50.7912,8.0238 -74.2961,0.31117 -9.3531,-3.06902 -25.2985,-11.32998 -33,-17.09659 -3.85,-2.88273 -27.25,-25.26883 -52,-49.74687 l -45,-44.50553 -0.6695,8.05509 c -4.3159,51.93117 -44.1932,96.02134 -96.8305,107.0603 -11.5414,2.42043 -33.4484,2.41201 -44.7961,-0.0172 -17.1006,-3.66078 -34.3284,-11.29625 -46.9443,-20.80604 -3.8813,-2.92569 -27.2952,-25.22366 -52.0308,-49.55105 l -44.974,-44.23161 -0.6645,7.23161 c -2.4178,26.31243 -14.2905,52.02236 -33.0648,71.60077 -24.0651,25.09572 -52.5231,37.51566 -86.0255,37.5442 -26.2268,0.0223 -49.1833,-7.40953 -69.563,-22.52013 -4.9666,-3.68251 -26.5639,-24.20911 -52.9144,-50.29104 l -44.5226,-44.06894 -0.7424,8.90105 c -3.9678,47.57312 -41.0197,91.50501 -87.7142,104.00127 -35.4373,9.48366 -72.7542,2.50449 -101.192,-18.92536 -3.6568,-2.75561 -26.8651,-24.89292 -51.574,-49.19401 l -44.9253,-44.18379 -1.1478,9.68379 c -3.202,27.01749 -14.0747,49.80271 -33.1971,69.56933 -24.1877,25.00254 -51.7552,36.90984 -85.5072,36.93335 -26.3912,0.0184 -49.109,-7.25992 -69.2325,-22.18061 -4.4337,-3.28738 -28.2452,-25.81219 -52.9144,-50.05514 l -44.8531,-44.0781 -0.7094,8.74748 c -1.7757,21.89464 -11.8664,46.14054 -26.2844,63.15623 -4.3844,5.17442 -5.6378,7.4856 -6.5074,12 -4.8667,25.2641 -13.7141,59.42761 -18.9739,73.26629 -1.1131,2.92873 -2.0241,5.66247 -2.0244,6.07497 -3e-4,0.4125 357.4688,0.75 794.3757,0.75 h 794.3763 l -4.9071,-15.25 z M 1246,841.53002 c 37.8975,-7.93908 67.4788,-31.60187 82.2037,-65.7567 5.9186,-13.72813 9.7299,-30.80067 9.7765,-43.79307 l 0.02,-5.51975 -9.25,-8.98246 c -5.0875,-4.94036 -13.1493,-12.75856 -17.9152,-17.37378 l -8.6651,-8.39131 3.5828,10.39352 c 3.254,9.43976 3.6233,11.63237 4.024,23.89353 0.3722,11.38961 0.1056,14.90693 -1.7058,22.5 -3.9669,16.62816 -12.5251,31.08293 -25.84,43.64357 -18.0957,17.07059 -38.4969,24.68043 -63.2307,23.58568 -17.3222,-0.7667 -32.3458,-6.07451 -45.5,-16.075 -3.3,-2.50883 -38.4,-36.71413 -78,-76.01177 -39.6,-39.29764 -72.0565,-71.381 -72.1256,-71.29637 -0.069,0.0846 0.4707,3.52889 1.1995,7.65389 0.7288,4.125 2.1354,14.84953 3.1256,23.83229 l 1.8005,16.33229 55,54.24584 c 57.4232,56.63579 62.8088,61.77193 71.0024,67.71361 14.4169,10.45447 34.1635,18.20408 52.9976,20.79897 9.236,1.27251 28.1257,0.57083 37.5,-1.39298 z m 277.0262,1.43094 c 32.2838,-3.9586 60.3513,-19.87647 78.6648,-44.61296 13.6868,-18.48715 22.2803,-43.2864 22.3014,-64.35842 l 0.01,-7.51042 -18.0782,-17.98958 c -15.4302,-15.3547 -17.8332,-17.40371 -16.4061,-13.98958 3.4041,8.1438 4.5855,12.1392 6.0175,20.3509 4.7876,27.45415 -4.1094,54.6563 -24.5677,75.11462 -18.3536,18.35364 -39.9671,26.92681 -64.907,25.74599 -17.7672,-0.84121 -33.1028,-6.14433 -46.2004,-15.9763 C 1456.7574,797.40584 1419.6952,761.3 1377.5,719.5 c -42.1951,-41.8 -80.1563,-78.5912 -84.358,-81.75821 -34.1466,-25.73748 -80.9877,-30.34396 -119.8386,-11.78524 -27.9822,13.36678 -47.2285,34.70018 -57.7779,64.04345 -3.5937,9.99601 -6.5231,25.39755 -6.5231,34.29588 v 7.22496 l 18.057,17.98958 18.0571,17.98958 -2.1838,-5.5 c -4.7575,-11.98219 -6.2478,-19.89507 -6.2151,-33 0.024,-9.54551 0.5377,-14.39087 2.1739,-20.5 4.3054,-16.07466 12.4587,-29.77572 24.768,-41.6205 27.0904,-26.06808 64.6287,-32.06506 97.8429,-15.63101 9.9289,4.9127 14.5504,9.00942 51,45.2079 82.7635,82.19343 124.0699,122.14584 131,126.70609 24.8815,16.37283 52.1335,23.15735 79.5262,19.79848 z M 1819,841.52977 c 10.8402,-2.27127 19.2556,-5.18506 29.6307,-10.25959 29.4534,-14.40577 50.3432,-40.78354 58.757,-74.19313 3.1502,-12.50877 4.5485,-29.24402 2.6361,-31.54841 -0.7001,-0.84349 -8.8039,-8.72479 -18.0085,-17.514 l -16.7356,-15.98038 3.6061,10.23287 c 3.5922,10.19318 3.606,10.29686 3.567,26.73287 -0.036,15.31066 -0.2406,17.11269 -2.8333,25 -16.6742,50.72515 -72.4011,76.00899 -119.2291,54.09549 -3.4923,-1.6342 -8.4962,-4.43221 -11.12,-6.21778 -2.6237,-1.78558 -38.7454,-36.85022 -80.2704,-77.92143 -74.7457,-73.92881 -83.702,-82.53573 -91.5255,-87.95499 -23.0047,-15.93517 -50.3585,-23.30866 -77.6711,-20.93707 -57.5327,4.99567 -100.5345,49.08181 -104.3595,106.99109 l -0.6238,9.44469 18.5115,18.41153 18.5116,18.41152 -3.327,-8.91152 c -4.4425,-11.89996 -5.9318,-21.9224 -5.2279,-35.18269 0.9675,-18.22593 6.9434,-33.85678 18.4805,-48.33871 11.9756,-15.03223 26.6123,-24.98188 44.9237,-30.53795 7.7252,-2.34397 10.528,-2.67453 22.8075,-2.68992 11.3676,-0.0142 15.5042,0.39584 22,2.18103 10.0518,2.76247 22.4284,8.85699 29.2356,14.39628 2.8796,2.34324 39.5546,38.25893 81.5,79.81266 42.0705,41.67759 79.6271,78.05673 83.7644,81.13813 16.6312,12.38669 34.955,19.87802 55.6348,22.74523 9.1028,1.2621 28.0308,0.54996 37.3652,-1.40582 z m 286.5,-0.0443 c 51.6381,-10.56497 88.8588,-53.01404 91.1777,-103.98549 l 0.5005,-11 -18.1462,-18 -18.1461,-18 2.1909,5.5 c 13.4375,33.73369 6.3397,68.32237 -19.2962,94.03402 -25.168,25.24232 -59.9026,32.67985 -92.7806,19.86662 -14.8547,-5.78918 -18.372,-8.94853 -99.8575,-89.69498 -42.3459,-41.96189 -79.3014,-78.13261 -82.1232,-80.37938 -44.7335,-35.61733 -110.8386,-32.96067 -152.4219,6.1256 -20.262,19.04535 -34.5974,51.5466 -34.5974,78.43953 v 7.12943 l 18.0782,17.98958 c 15.3662,15.29101 17.8245,17.38955 16.3875,13.98958 -14.3967,-34.06218 -6.7389,-70.70643 20.1914,-96.6205 27.6598,-26.61601 66.1274,-32.30012 99.3429,-14.67927 10.2465,5.43577 12.4392,7.35975 42.3729,37.17884 66.8268,66.57111 128.3526,126.53551 134.83,131.40834 13.316,10.01748 33.1758,18.51875 49.2971,21.10236 3.85,0.617 8.125,1.31461 9.5,1.55023 4.9767,0.85281 25.6836,-0.3553 33.5,-1.95451 z m 286.5,0.0443 c 11.0594,-2.3172 19.3413,-5.23537 30.102,-10.60658 27.135,-13.54457 46.4837,-36.3066 55.975,-65.8498 3.4451,-10.72353 6.1581,-27.02692 5.7195,-34.3711 l -0.2965,-4.96439 -18.2552,-17.50116 c -18.1893,-17.43799 -18.2463,-17.48173 -15.7971,-12.11895 1.3519,2.96022 3.204,8.08221 4.1156,11.38221 2.177,7.87997 3.0022,27.4317 1.5176,35.957 -3.0358,17.43293 -12.822,35.34337 -26.314,48.15951 C 2411.7834,807.74913 2391.5595,816 2369,816 c -23.699,0 -44.1862,-9.04172 -62.0282,-27.37521 -28.301,-29.08054 -147.6537,-146.01701 -153.4718,-150.36486 -23.2255,-17.35626 -52.1608,-25.67352 -80.6966,-23.19571 -57.4689,4.99012 -100.6863,49.26576 -104.3801,106.93578 l -0.6085,9.5 18.5142,18.41153 18.5142,18.41152 -3.3501,-8.9188 c -4.5973,-12.2395 -5.8317,-20.33387 -5.2233,-34.25243 0.6029,-13.79497 2.2721,-20.52806 8.0948,-32.65182 19.9238,-41.48464 68.0497,-60.97212 109.589,-44.37549 15.3393,6.1287 15.5439,6.31189 96.6646,86.56575 42.415,41.96176 80.3088,78.96641 84.2084,82.23257 16.3701,13.71077 37.5635,22.92858 59.8082,26.01276 9.1028,1.2621 28.0308,0.54996 37.3652,-1.40582 z M 1239.162,809.59101 c 25.7976,-4.95347 45.9936,-20.11888 57.3195,-43.04197 6.7375,-13.63615 8.8408,-23.93316 8.283,-40.54904 -0.3977,-11.84528 -0.8463,-14.66443 -3.66,-23 -10.0868,-29.8827 -33.9743,-50.04786 -65.1045,-54.95937 -29.6863,-4.6837 -61.9976,8.28106 -78.5906,31.53418 -10.6969,14.9903 -15.6459,30.57383 -15.6965,49.42519 -0.035,12.98207 1.1763,19.81807 5.492,31 9.9348,25.74082 32.664,44.37998 60.8638,49.91163 7.0379,1.38056 23.096,1.21498 31.0933,-0.32062 z M 1214.5,795.30244 c -12.9619,-1.71916 -27.0554,-8.99319 -37.3432,-19.27376 -13.5513,-13.54196 -19.1521,-25.79667 -19.8937,-43.52868 -0.5537,-13.23676 1.1014,-21.52251 6.4723,-32.40336 4.4022,-8.91814 17.2256,-22.89284 25.6692,-27.97382 22.3232,-13.43296 50.2099,-12.56364 70.9142,2.21062 28.5531,20.3751 37.5222,54.9977 22.0109,84.96704 -5.6451,10.90693 -19.1843,24.10691 -30.3297,29.56969 -11.9058,5.8355 -25.0285,8.08639 -37.5,6.43227 z m 21.162,-5.78426 c 39.454,-7.45906 60.6912,-50.92201 42.9941,-87.98949 -8.8384,-18.51255 -25.7174,-30.50114 -47.1153,-33.4645 -31.5649,-4.37137 -60.8836,15.62077 -68.0988,46.43581 -2.3954,10.23049 -1.5685,26.71895 1.7924,35.74155 5.6148,15.0733 14.8724,25.99758 27.647,32.6245 14.7672,7.66062 27.2114,9.59561 42.7806,6.65213 z m -26.162,-8.38477 c -8.5427,-2.45476 -15.8624,-6.7321 -22.4282,-13.10624 -10.2624,-9.96269 -15.1276,-19.05831 -17.1433,-32.05028 -2.5285,-16.29631 3.4615,-32.37012 16.7929,-45.0628 4.5965,-4.37618 10.2037,-8.58396 13.6846,-10.2692 21.0661,-10.19872 43.5193,-6.00435 60.7153,11.3419 11.3814,11.48088 15.8049,21.81896 15.8543,37.05311 0.049,15.25653 -4.3838,25.37706 -16.4523,37.55833 -8.6589,8.73975 -16.3709,13.2214 -26.3225,15.29669 -7.5068,1.56543 -17.6961,1.2513 -24.7008,-0.76151 z m 24.7008,-4.23849 c 17.5986,-3.66997 31.7549,-17.10942 36.2663,-34.42988 1.7519,-6.7261 1.9683,-18.86331 0.4535,-25.43723 -5.7225,-24.8344 -31.493,-41.08736 -56.838,-35.84659 -16.3549,3.38184 -27.404,11.5434 -34.0765,25.17127 -10.0182,20.46067 -6.2884,43.48963 9.5323,58.85628 10.5031,10.20158 28.8106,14.99184 44.6624,11.68615 z m 292.5914,32.52096 c 14.9523,-3.07301 31.2855,-11.7247 41.5922,-22.03144 C 1582.4513,773.31762 1592,749.71039 1592,729 c 0,-21.74848 -10.0821,-45.42843 -25.471,-59.82395 -34.6797,-32.44123 -93.0713,-28.22143 -121.5197,8.7819 -9.9617,12.95745 -15.812,29.14643 -16.721,46.27089 -1.9344,36.44027 17.4061,67.72488 49.8879,80.69756 14.9407,5.96706 33.2153,7.65464 48.616,4.48948 z M 1496.5,794.42652 c -3.85,-0.85078 -10.8157,-3.3826 -15.4793,-5.62627 -6.9692,-3.35287 -10.1056,-5.70562 -17.6104,-13.21051 -7.5218,-7.52177 -9.867,-10.65133 -13.3061,-17.75663 -16.0915,-33.245 -2.3527,-71.9194 31.5189,-88.72487 12.2839,-6.09465 29.3883,-8.18422 42.3769,-5.17699 23.3346,5.40261 44.3604,26.02185 50.5461,49.56875 2.1189,8.066 2.1036,23.2727 -0.032,31.5 -4.0656,15.6643 -16.8622,32.66755 -31.0239,41.22243 -13.6725,8.25936 -32.1454,11.48456 -46.9904,8.20409 z m 33.2328,-6.97286 c 15.6594,-5.2567 27.0469,-14.68226 34.0659,-28.19688 5.422,-10.43974 7.4116,-18.61531 7.3632,-30.25678 -0.1013,-24.3182 -12.6164,-44.98167 -33.1619,-54.75285 -10.7535,-5.11422 -17.2015,-6.59763 -28.5,-6.55667 -27.3874,0.0993 -50.0481,16.32677 -58.0144,41.54439 -5.2808,16.71683 -4.1103,32.63039 3.5667,48.49114 12.8598,26.56824 45.4483,39.54057 74.6805,29.72765 z m -32.527,-6.01028 c -2.9118,-0.78376 -7.8618,-2.66664 -11,-4.18419 -7.537,-3.64469 -20.8364,-16.83564 -24.4587,-24.25919 -10.5501,-21.62109 -6.5609,-44.29192 10.8493,-61.65768 18.1919,-18.14552 44.7215,-21.35232 65.0616,-7.86442 22.1403,14.68162 31.3295,39.93561 22.9408,63.04625 -9.4407,26.00895 -38.0166,41.74962 -63.393,34.91923 z m 30.1344,-6.42439 c 18.2753,-6.97872 29.5864,-22.3465 31.3144,-42.54505 0.7209,-8.4272 -2.1119,-21.16588 -6.2937,-28.30155 -13.026,-22.22707 -40.8742,-30.18868 -65.0554,-18.59885 -24.0484,11.52615 -33.2199,41.63707 -20.5374,67.42646 5.2675,10.7114 16.9148,19.70619 30.4377,23.50598 7.635,2.14535 22.5496,1.40937 30.1344,-1.48699 z m 284.8218,34.57202 c 14.0322,-2.69436 28.7791,-9.80812 39.5924,-19.09901 9.3111,-8.0001 18.1215,-22.06124 22.8651,-36.492 2.5971,-7.90077 2.7956,-9.66321 2.8156,-25 0.021,-16.14536 -0.051,-16.70971 -3.3354,-26.25716 C 1863.92,673.15541 1839.818,652.9029 1809,648.04063 c -29.6389,-4.67622 -62.1111,8.33146 -78.5,31.44542 -5.8855,8.30051 -10.0095,16.85072 -13.1278,27.21736 -3.6033,11.97923 -3.8807,30.70532 -0.634,42.79659 8.56,31.8782 30.5336,52.89004 62.7618,60.0146 8.027,1.7745 23.6284,1.81099 32.662,0.0764 z m -26.8397,-14.68928 c -7.2804,-1.21554 -17.205,-5.12821 -24.0188,-9.46914 -7.284,-4.64053 -17.7597,-15.4098 -22.1807,-22.80233 -6.1798,-10.3336 -8.357,-17.85366 -8.8821,-30.67833 -0.8179,-19.97713 4.2717,-33.22708 18.4193,-47.95193 12.2811,-12.7823 23.5889,-18.70645 39.9929,-20.95248 37.6404,-5.15369 74.3124,27.3928 74.3124,65.95248 0,9.5912 -2.4016,19.42087 -7.0854,29 -3.3968,6.9471 -5.8259,10.16098 -13.2961,17.59159 -7.4076,7.36845 -10.7457,9.87367 -17.6119,13.21792 -12.9889,6.32637 -26.1423,8.3474 -39.6496,6.09222 z m 23.4699,-5.43382 c 33.8883,-6.73598 54.9994,-39.46262 47.6964,-73.93922 -5.4084,-25.53196 -25.3867,-43.78611 -51.9478,-47.4645 -24.9036,-3.44886 -50.9824,9.33083 -62.2349,30.49766 -5.5915,10.51796 -7.6109,20.06181 -7.0652,33.39008 0.5259,12.846 2.73,20.44295 8.8821,30.61511 12.8214,21.19934 38.8604,32.03092 64.6694,26.90087 z m -25.5277,-8.0095 c -25.9132,-6.97876 -44.0824,-33.64741 -40.3781,-59.26697 1.7341,-11.99353 7.1583,-22.05799 16.9085,-31.37323 4.8062,-4.59187 10.1294,-8.58332 13.6997,-10.27233 21.2101,-10.03397 43.5344,-5.8449 60.5054,11.35357 11.2451,11.39584 15.9649,22.3599 15.9881,37.14045 0.024,15.28389 -4.4039,25.38471 -16.4648,37.55833 -8.6589,8.73975 -16.3709,13.2214 -26.3225,15.29669 -7.0979,1.48016 -17.5254,1.29 -23.9363,-0.43651 z m 23.9363,-4.56349 c 22.5925,-4.71138 37.8249,-24.00214 37.7873,-47.85502 -0.04,-25.44185 -16.6691,-44.64043 -41.8072,-48.26707 -14.6749,-2.11714 -29.8607,2.51207 -40.6809,12.40117 -10.9496,10.00727 -17.1596,28.47478 -14.572,43.33416 5.089,29.22284 30.3312,46.42215 59.2728,40.38676 z m 292.5914,32.52096 c 22.0385,-4.52936 42.0797,-18.54447 53.1024,-37.13532 16.7006,-28.16712 15.7626,-62.45587 -2.4595,-89.90314 -25.9661,-39.11188 -82.1268,-46.89294 -120.5541,-16.70275 -10.9786,8.62529 -22.2837,26.49139 -26.4656,41.82533 -2.1601,7.92059 -2.9738,27.47265 -1.4963,35.957 2.8572,16.40721 13.2118,36.08088 24.1805,45.94267 19.5413,17.56926 47.9945,25.29767 73.6926,20.01621 z M 2069.5,794.42652 c -3.85,-0.85078 -10.8157,-3.3826 -15.4793,-5.62627 -6.9695,-3.35303 -10.1002,-5.7016 -17.5823,-13.18983 -7.3589,-7.36486 -9.905,-10.73902 -13.2887,-17.61042 -6.9126,-14.0376 -8.6356,-26.89045 -5.5848,-41.66032 6.8962,-33.38693 39.5973,-57.51642 72.3777,-53.40611 16.1241,2.02179 28.066,8.25244 40.4967,21.12893 C 2143.5522,697.64556 2149,710.8354 2149,729 c 0,15.20636 -4.3432,28.10006 -13.4536,39.93965 -15.8246,20.56537 -42.2215,30.75174 -66.0464,25.48687 z m 33.2424,-6.97434 c 20.786,-6.97297 34.176,-21.43947 39.719,-42.91228 1.9709,-7.6346 1.9828,-23.37236 0.024,-31.0798 -10.5368,-41.45145 -59.0303,-59.19514 -95.5066,-34.94573 -12.1593,8.08348 -21.2178,22.07408 -24.4054,37.69347 -3.0472,14.93171 -1.3463,27.73932 5.5389,41.70653 13.0566,26.48654 45.4765,39.31792 74.6305,29.53781 z M 2070,781.40733 c -9.6883,-2.57365 -16.0875,-6.44773 -24.5826,-14.88231 -11.544,-11.46176 -16.3808,-22.38941 -16.4055,-37.06492 -0.025,-14.60102 5.4037,-27.1691 16.4339,-38.04904 15.2834,-15.07515 35.022,-19.95908 54.1158,-13.38986 8.2087,2.82421 14.2823,7.0259 22.1164,15.30014 7.6733,8.10432 11.7883,15.66984 13.8728,25.50499 1.7859,8.42597 1.776,11.95503 -0.058,20.67367 -4.1093,19.53652 -20.7051,36.93414 -40.0345,41.96881 -7.2788,1.89591 -18.1891,1.86956 -25.4584,-0.0615 z m 25.4584,-4.93852 c 18.3319,-4.77485 31.0958,-18.24349 35.0345,-36.96881 1.8339,-8.71864 1.8438,-12.2477 0.058,-20.67367 -3.6608,-17.27273 -14.9136,-30.27433 -30.9892,-35.80513 -22.9009,-7.87907 -49.3949,1.83868 -59.4797,21.81659 -15.1113,29.93536 -1.158,63.31433 29.9181,71.56954 7.2693,1.93104 18.1796,1.95739 25.4584,0.0615 z M 2392,808.0404 c 26.859,-7.70901 45.4468,-25.43633 54.8761,-52.33559 3.5037,-9.99515 3.5777,-10.52326 3.6005,-25.70481 0.028,-18.43313 -1.1349,-23.7477 -8.449,-38.61954 -10.0275,-20.38894 -26.8797,-34.29779 -49.5276,-40.87727 -34.4859,-10.01858 -71.8077,3.0633 -90.9351,31.87423 -18.2014,27.41613 -19.1412,61.76797 -2.4595,89.90314 10.8248,18.25705 30.6005,32.26818 52.3946,37.12174 9.9745,2.22131 30.41,1.53412 40.5,-1.3619 z m -33.6777,-13.13867 c -25.0138,-4.17631 -47.2318,-24.98067 -53.7837,-50.36183 -1.9709,-7.6346 -1.9828,-23.37236 -0.024,-31.0798 2.7945,-10.99346 8.082,-20.11255 17.0457,-29.3976 9.0477,-9.3722 15.9074,-14.02873 26.1353,-17.74126 27.4559,-9.96593 58.0082,0.18801 75.8662,25.21379 14.3616,20.12588 16.2735,44.15668 5.2881,66.46497 -3.3837,6.8714 -5.9298,10.24556 -13.2887,17.61042 -7.4892,7.49539 -10.6061,9.83254 -17.5823,13.18389 -13.1906,6.33677 -26.2433,8.34697 -39.657,6.10742 z m 23.4699,-5.46784 c 18.8042,-3.82072 34.08,-15.25859 42.0959,-31.51952 9.1619,-18.58568 9.3557,-38.07373 0.561,-56.41437 -4.7765,-9.96094 -11.1134,-17.45844 -19.4275,-22.98563 -25.9393,-17.24445 -60.4492,-13.7573 -81.0448,8.18939 C 2313.4663,697.90371 2308,712.37504 2308,729 c 0,27.09343 14.3229,48.436 38.6504,57.59283 11.8823,4.4725 22.7773,5.35331 35.1418,2.84106 z m -25.6799,-8.01444 c -13.613,-3.661 -28.4891,-15.79974 -34.8726,-28.45561 -3.3327,-6.60754 -6.205,-17.70029 -6.205,-23.96384 0,-5.82309 2.661,-16.50107 5.6471,-22.66038 3.2611,-6.72661 14.302,-18.83731 21.2209,-23.27719 20.3592,-13.06446 46.5882,-9.67585 64.7081,8.35983 17.1888,17.10901 21.1945,39.93988 10.7809,61.44678 -3.5703,7.37365 -16.9232,20.71703 -24.3917,24.37432 -11.5185,5.64052 -25.5399,7.2279 -36.8877,4.17609 z m 25.4276,-4.95111 c 22.4743,-5.77559 36.4112,-23.95253 36.4482,-47.53684 0.029,-18.72417 -9.7675,-35.18026 -25.6846,-43.14328 -24.9064,-12.46015 -54.9899,-3.14621 -66.6317,20.6293 -2.9721,6.06978 -5.6371,16.74597 -5.6371,22.58248 0,6.21603 2.8626,17.33737 6.1217,23.78355 9.6912,19.16804 33.4396,29.32407 55.3835,23.68479 z M 2565.9025,790.75 c -0.9078,-7.2875 -1.9715,-17.60022 -2.3637,-22.91715 l -0.713,-9.66715 -57.469,-56.75937 c -31.6079,-31.21765 -60.2032,-58.95378 -63.5451,-61.63584 C 2413.6542,617.17266 2374.6624,609.1326 2339,618.5709 c -10.7126,2.83517 -26.731,10.13464 -35.892,16.35576 -27.2277,18.48998 -46.2986,52.63966 -47.7885,85.57334 l -0.4977,11 18.0663,17.96683 18.0663,17.96682 -2.9619,-7.62802 c -12.7149,-32.74482 -4.3395,-67.91615 22.2522,-93.44524 22.5442,-21.64332 52.9822,-29.36139 82.2553,-20.8572 14.9332,4.33826 30.585,14.01905 39.9731,24.72373 2.5381,2.89405 134.4639,133.56009 135.0535,133.76388 0.015,0.005 -0.7162,-5.9533 -1.6241,-13.2408 z M 1034.936,789.07769 c 9.1159,-15.19874 14.4259,-31.909 16.0618,-50.54502 l 0.9685,-11.03267 -10.7332,-10.77004 -10.7331,-10.77004 -0.6152,31.77004 c -0.5377,27.76493 -2.1913,51.04685 -4.4582,62.77004 l -0.5802,3 2.5191,-3 c 1.3855,-1.65 4.7922,-6.79004 7.5705,-11.42231 z m -447.74926,7.02245 c 41.72683,-10.78059 68.68255,-41.62864 73.79549,-84.45134 2.20516,-18.46895 -1.25005,-37.13267 -10.20968,-55.1488 -12.4288,-24.992 -33.53963,-41.76108 -62.59712,-49.72311 -11.57101,-3.17057 -36.31386,-3.12511 -48.17543,0.0885 -22.46128,6.08537 -40.56123,17.78759 -52.95765,34.23888 -7.24767,9.61838 -12.98695,21.17232 -16.58891,33.39571 -3.78098,12.83086 -4.49752,32.9396 -1.66117,46.61862 8.16836,39.39409 38.27604,69.15236 76.70773,75.8175 3.3,0.57231 7.125,1.2412 8.5,1.48643 5.61483,1.00136 25.78532,-0.41018 33.18674,-2.32241 z M 3053,795.64406 c 35.7378,-9.21521 61.2199,-35.09963 70.1798,-71.28775 3.1277,-12.63281 3.1451,-33.26981 0.038,-45.66329 -9.2016,-36.70725 -33.9783,-61.80285 -70.9759,-71.88962 -11.5846,-3.15834 -35.2765,-3.16807 -47.6821,-0.0196 -10.6153,2.69408 -25.3674,9.47246 -33.9116,15.58189 -33.1848,23.72825 -47.6359,68.85205 -34.9432,109.11063 11.283,35.78748 40.5276,60.43768 78.8794,66.48738 9.7277,1.53447 27.6702,0.45103 38.4153,-2.31966 z m -490.4244,-66.89605 c 0.077,-24.82917 1.2458,-41.10654 4.4665,-62.23015 1.0048,-6.59018 1.666,-12.14311 1.4693,-12.33984 -0.803,-0.80296 -9.8997,12.94151 -14.4407,21.81897 -7.8197,15.28684 -13.0471,35.48723 -13.0648,50.48668 l -0.01,4.98367 10.7329,10.76633 c 5.9032,5.92148 10.7407,10.76544 10.75,10.76434 0.01,-10e-4 0.051,-10.91359 0.093,-24.25 z M 1105.6295,709 c 4.2738,-24.98209 16.083,-46.77849 35.5238,-65.56649 10.7869,-10.42478 19.1322,-16.25962 32.1477,-22.47696 32.4354,-15.49408 70.6099,-15.01457 103.199,1.29628 13.8975,6.95568 20.6041,12.83467 66.9805,58.71476 l 45.9805,45.48842 0.7256,-4.97801 c 2.4882,-17.07195 3.2573,-20.83737 5.858,-28.6809 7.1843,-21.66679 20.905,-41.52953 38.8024,-56.17189 42.967,-35.15265 102.6537,-36.08318 147.1417,-2.29398 3.0189,2.29282 25.5189,23.95693 50,48.14247 l 44.5113,43.97369 0.7202,-7.92171 c 2.6104,-28.71215 15.1062,-54.1484 36.8898,-75.09217 10.8752,-10.4559 19.2124,-16.27724 32.191,-22.47696 31.9947,-15.28354 70.4994,-14.99017 102.199,0.77866 15.0079,7.46563 21.0547,12.73102 67.9949,59.20817 l 45.9949,45.54117 0.7532,-5.99228 c 3.7772,-30.05015 13.3321,-51.52246 32.0701,-72.06966 37.2435,-40.83929 97.8017,-50.61604 145.4268,-23.47822 12.6094,7.18514 19.5974,13.43761 63.7322,57.0238 l 45.0279,44.46819 0.6932,-8.33301 c 1.6087,-19.33935 10.5785,-42.7051 22.4971,-58.60337 7.2034,-9.60872 21.4194,-23.46274 30.1813,-29.41283 31.0507,-21.08611 70.9467,-26.17376 106.1284,-13.53377 22.5819,8.11316 27.4323,11.98044 80.4564,64.1486 l 46.0436,45.30037 1.672,-11.75119 c 3.4354,-24.14512 12.6146,-44.53477 28.2022,-62.64501 4.9252,-5.72219 5.1681,-6.3033 8.3437,-19.95409 15.9916,-68.74354 50.0208,-135.24135 96.0958,-187.78486 3.9539,-4.50892 7.0018,-8.38502 6.7733,-8.61355 -0.2285,-0.22853 -13.8416,3.8612 -30.2513,9.08829 -16.4096,5.22709 -36.3607,11.36635 -44.3357,13.6428 -7.975,2.27645 -24.175,7.00331 -36,10.50414 -11.825,3.50082 -27.8,8.00123 -35.5,10.00091 -7.7,1.99968 -24.35,6.52151 -37,10.04852 -12.65,3.527 -33.8,8.86374 -47,11.85942 -13.2,2.99567 -31.2,7.2441 -40,9.44094 -21.3007,5.31753 -52.4489,11.76912 -95,19.67689 -96.8244,17.99402 -179.6723,28.99026 -256,33.97839 -12.65,0.82669 -28.85,1.93801 -36,2.46958 -15.19,1.12932 -59.9853,3.57788 -93.5,5.11081 -36.7795,1.68225 -180.7997,2.33822 -224,1.02026 -42.4651,-1.29554 -87.8807,-3.41164 -121,-5.63788 -12.375,-0.83183 -32.4,-2.1768 -44.5,-2.98881 -70.7392,-4.74723 -157.1319,-15.84711 -236.6144,-30.40062 -57.4251,-10.51472 -88.1414,-16.84061 -116.9905,-24.09369 -8.6763,-2.18133 -25.9321,-6.19504 -38.3463,-8.91936 -12.4142,-2.72432 -33.0287,-7.87276 -45.81,-11.44099 -12.7814,-3.56822 -29.5388,-8.12862 -37.2388,-10.13422 -7.7,-2.00559 -23.45,-6.50371 -35,-9.99581 -11.55,-3.49209 -27.525,-8.21411 -35.5,-10.49337 -10.84372,-3.09914 -62.01215,-18.99344 -75.872,-23.5679 -0.7546,-0.24906 1.0454,2.1596 4,5.35258 2.9546,3.19298 9.69622,11.18742 14.98137,17.76543 40.05027,49.84739 67.84583,106.23164 83.60793,169.60139 l 4.7325,19.02654 40.5251,40.16604 40.5251,40.16605 0.2522,-4 c 0.1386,-2.2 0.9834,-8.275 1.8773,-13.5 z M 1926,566.089 c 34.402,-1.59495 78.6046,-4.01802 93.5,-5.12545 7.15,-0.53157 23.35,-1.64289 36,-2.46958 76.3277,-4.98813 159.1756,-15.98437 256,-33.97839 42.5511,-7.90777 73.6993,-14.35936 95,-19.67689 8.8,-2.19684 26.8,-6.44527 40,-9.44094 13.2,-2.99568 34.35,-8.33242 47,-11.85942 12.65,-3.52701 29.3,-8.04665 37,-10.04364 7.7,-1.997 20.075,-5.44554 27.5,-7.66343 7.425,-2.21788 24.075,-7.08849 37,-10.82357 12.925,-3.73507 38.5199,-11.55445 56.8775,-17.37639 l 33.3776,-10.58534 13.1224,-12.77298 c 24.0415,-23.4012 52.6227,-45.41575 78.8466,-60.73116 3.6982,-2.15986 6.5891,-4.06198 6.4241,-4.22691 -0.3808,-0.38083 -13.4504,4.10088 -45.6482,15.65326 -32.2745,11.57992 -99.5127,34.12134 -112,37.54769 -5.225,1.43367 -16.475,4.80253 -25,7.48635 -27.1993,8.5628 -62.0467,18.74042 -77,22.48879 -7.975,1.99911 -20.575,5.3758 -28,7.50376 -26.4898,7.5918 -93.0625,23.94486 -120.0527,29.48997 -15.096,3.10147 -33.2973,6.93245 -40.4473,8.51329 -16.3281,3.61011 -62.05,12.17308 -82.5,15.45093 -35.9788,5.7669 -88.7302,13.53805 -105,15.46824 -21.4752,2.54774 -78.6391,7.67455 -101,9.0583 -9.075,0.56159 -26.4,1.68527 -38.5,2.49708 -32.9758,2.2124 -79.349,4.33375 -123,5.62664 -43.8421,1.29855 -177.8752,0.66321 -214.5,-1.01677 -48.499,-2.22464 -82.8298,-4.18879 -133,-7.60923 -20.8879,-1.42407 -78.964,-6.7256 -93.5,-8.53522 -54.2706,-6.7563 -158.0823,-24.07232 -194.5,-32.44303 -7.975,-1.83307 -22.9103,-4.95178 -33.1894,-6.93046 -24.822,-4.77807 -100.5294,-23.8382 -163.8106,-41.24099 -9.075,-2.4957 -30.9857,-8.97018 -48.6904,-14.38775 -17.70472,-5.41756 -35.02972,-10.56927 -38.5,-11.44823 -7.9113,-2.00381 -79.50837,-25.91947 -96.02176,-32.07427 C 856.31595,365.39207 809.26902,349 808.32957,349 c -0.3227,0 4.08624,2.8336 9.79763,6.29689 27.5113,16.68237 50.05316,34.06868 75.60606,58.3142 l 14.23327,13.50503 33.26673,10.54915 c 18.29671,5.80204 42.49174,13.21933 53.76674,16.48289 11.275,3.26355 27.7,8.13057 36.5,10.8156 8.8,2.68502 22.3,6.51986 30,8.52185 7.7,2.00199 24.4574,6.55944 37.2388,10.12766 12.7813,3.56823 33.3958,8.71667 45.81,11.44099 12.4142,2.72432 29.67,6.73803 38.3463,8.91936 28.8491,7.25308 59.5654,13.57897 116.9905,24.09369 79.4851,14.55399 165.8897,25.65525 236.6144,30.40022 12.1,0.81179 31.9,2.1458 44,2.96445 27.3202,1.84841 78.9383,4.39156 112,5.51807 33.4234,1.13884 203.9251,0.5101 233.5,-0.86105 z M 569.5,75.981266 c 21.95367,-1.336674 2430.9225,-1.323261 2453.5,0.01366 9.075,0.537375 18.7988,1.252239 21.6084,1.588586 l 5.1083,0.611541 4.5751,-6.847527 c 5.536,-8.285972 13.7177,-16.39856 19.3988,-19.235176 2.3048,-1.15081 9.7298,-3.053107 16.5,-4.227326 13.2827,-2.303753 21.267,-5.621894 26.3869,-10.965962 L 3119.3742,34 H 1796.6871 C 996.45614,34 474,34.361805 474,34.915971 c 0,1.436682 7.3934,6.928305 12.1705,9.039923 2.38122,1.052572 9.90034,2.863713 16.70915,4.024758 6.80882,1.161045 14.23382,3.036048 16.5,4.166673 5.84646,2.916858 15.0684,12.262145 19.41238,19.672038 l 3.70467,6.319362 5.50165,-0.59164 C 551.02426,77.221682 560.7,76.517064 569.5,75.981266 Z M 3135,17 V 5 H 1796.5 458 V 17 29 H 1796.5 3135 Z M 1047.2814,6558.25 c 0.2687,-5131.3619 0.3752,-5418.1993 2.0137,-5426.25 6.4663,-31.7699 16.3596,-51.7961 34.6273,-70.0929 10.3025,-10.3191 19.1487,-16.217 30.0776,-20.0537 8.7541,-3.0731 27.6271,-3.3231 36,-0.4768 27.0047,9.18 49.4709,34.6435 60.4039,68.4625 1.9635,6.0739 4.3489,14.7823 5.3009,19.3521 1.6397,7.8712 1.7457,293.7208 2.0138,5427.5588 l 0.2831,5419.25 h -2.5 -2.5 l -0.2831,-5419.25 c -0.2681,-5133.838 -0.3741,-5419.6876 -2.0138,-5427.5588 -7.7074,-36.9989 -25.6602,-65.6273 -48.619,-77.5305 -11.6573,-6.0438 -16.2834,-7.1573 -29.5858,-7.1215 -9.8719,0.027 -13.1527,0.437 -18.5,2.3142 -29.9733,10.5222 -50.464,39.7446 -59.7049,85.1466 -1.6385,8.0507 -1.745,294.8881 -2.0137,5426.25 l -0.2838,5417.75 h -2.5 -2.5 z m 175.9789,0 0.262,-5417.75 2.1831,-9 c 6.2506,-25.7685 15.8452,-44.0486 31.6799,-60.3579 14.55,-14.9861 28.0069,-23.5621 45.1147,-28.7514 8.1136,-2.4611 10.5265,-2.7325 24.5,-2.756 14.0484,-0.024 16.3224,0.2268 24.2818,2.6744 40.8635,12.5662 71.1748,50.0143 78.2636,96.6909 1.2557,8.2681 1.4436,711.5286 1.4487,5423.25 l 0.01,5413.75 h -2.5 -2.5 l -0.01,-5413.75 c -0.01,-4711.7214 -0.193,-5414.9819 -1.4487,-5423.25 -2.1296,-14.0223 -5.9233,-26.1336 -12.0598,-38.5 -13.5775,-27.362 -33.4904,-44.6691 -61.1973,-53.189 -7.9667,-2.4498 -10.2374,-2.7 -24.2883,-2.6763 -13.9735,0.024 -16.3864,0.2949 -24.5,2.756 -36.4999,11.0715 -61.0564,39.8401 -71.7946,84.1093 l -2.1831,9 -0.262,5417.75 -0.262,5417.75 h -2.5 -2.5 z M 1438,6561.631 c 0,-4794.2951 0.1708,-5415.3484 1.4913,-5422.9209 6.3509,-36.4188 28.8963,-68.289 61.0149,-86.2507 20.2124,-11.3034 47.8239,-15.9719 70.7837,-11.9681 24.3406,4.2447 43.6918,14.4138 61.7725,32.4618 16.876,16.8455 27.288,35.3283 33.2632,59.0469 l 2.1413,8.5 0.2673,5417.75 0.2673,5417.75 h -2.5 -2.5 l -0.2673,-5417.75 -0.2673,-5417.75 -2.1413,-8.5 c -11.9025,-47.2471 -44.5003,-78.568 -90.0357,-86.5087 -41.0041,-7.1505 -85.0173,11.4353 -107.7693,45.5087 -9.4851,14.2048 -16.062,30.6943 -19.0293,47.7101 -1.3205,7.5725 -1.4913,628.6258 -1.4913,5422.9209 V 11976 h -2.5 -2.5 z m 239,-0.7239 V 1145.8142 l 2.0296,-9.9594 c 5.0474,-24.7681 15.1473,-43.1976 33.9083,-61.8734 24.5541,-24.4426 54.5292,-36.191 88.5005,-34.6868 29.245,1.2949 53.943,11.8471 75.3789,32.2054 20.1147,19.1036 30.1012,36.1998 36.903,63.1758 1.6264,6.4501 1.7361,303.7816 2.001,5424.0742 l 0.2802,5417.25 h -2.5 -2.5 l -0.2802,-5417.25 c -0.2649,-5120.2926 -0.3746,-5417.6241 -2.001,-5424.0742 -2.8794,-11.4197 -6.654,-21.7429 -11.015,-30.1253 -28.1288,-54.0673 -95.6909,-75.8369 -152.1744,-49.0331 -32.0636,15.2155 -54.0951,43.9947 -61.5013,80.3374 L 1682,1145.8142 V 6560.9071 11976 h -2.5 -2.5 z m 246.259,-0.6571 0.2616,-5415.75 2.259,-9.7439 c 5.7169,-24.659 15.0844,-42.3284 31.5128,-59.4405 14.7846,-15.4001 28.811,-24.4248 47.7076,-30.6955 13.8793,-4.6058 24.4208,-6.0324 39.4107,-5.3336 28.3942,1.3237 53.4365,12.7229 74.7308,34.0171 16.7109,16.7109 26.8551,34.9741 33.1581,59.6964 l 2.1671,8.5 0.2675,5417.25 0.2675,5417.25 h -2.5 -2.5 l -0.2675,-5417.25 -0.2675,-5417.25 -2.1671,-8.5 c -4.4166,-17.3234 -8.954,-27.7974 -17.7464,-40.9652 -19.0861,-28.5842 -50.368,-46.1272 -85.1425,-47.7483 -14.9899,-0.6988 -25.5314,0.7278 -39.4107,5.3336 -38.8613,12.8959 -64.2148,41.9782 -74.2204,85.136 l -2.259,9.7439 -0.2616,5415.75 -0.2616,5415.75 h -2.5 -2.5 z m 238.7442,0 c 0,-4890.3755 0.1538,-5416.6108 1.5553,-5424.6236 5.8928,-33.6886 25.2249,-63.8961 52.2439,-81.6338 30.2835,-19.8808 69.1117,-19.8808 99.3952,0 27.019,17.7377 46.3511,47.9452 52.2439,81.6338 1.4015,8.0128 1.5524,534.2481 1.5553,5424.6236 V 11976 h -2.5 -2.5 V 6560.25 c 0,-4890.3755 -0.1538,-5416.6108 -1.5553,-5424.6236 -9.4693,-54.1352 -49.1188,-91.6001 -96.9415,-91.6001 -47.8227,0 -87.4722,37.4649 -96.9415,91.6001 -1.4015,8.0128 -1.5524,534.2481 -1.5553,5424.6236 V 11976 h -2.5 -2.5 z m 212.2923,-1.5 c 0.273,-4961.8182 0.4326,-5417.932 1.8986,-5425.3618 6.4903,-32.893 17.7991,-55.6982 36.3081,-73.2185 14.4187,-13.6485 27.5918,-19.9777 43.4978,-20.8991 18.2601,-1.0578 34.3541,5.2229 50.0188,19.5198 17.4306,15.9086 29.4238,38.3629 36.1648,67.7096 l 2.297,10 0.2604,5419.75 0.2605,5419.75 h -2.5 -2.5 l -0.2605,-5419.75 -0.2604,-5419.75 -2.297,-10 c -8.5006,-37.0072 -25.2041,-62.9721 -48.1688,-74.8766 -11.5833,-6.0045 -16.2304,-7.12 -29.5148,-7.0842 -9.8719,0.027 -13.1527,0.437 -18.5,2.3142 -30.2108,10.6056 -50.6637,40.1996 -59.8058,86.5348 -1.4659,7.4296 -1.6256,463.6758 -1.8987,5425.3618 l -0.2983,5417.25 h -2.4999 -2.4999 z"
       style="fill:#000000" />
  </g>
</svg>
