<?xml version="1.0" encoding="UTF-8" standalone="no"?>
<!DOCTYPE svg PUBLIC "-//W3C//DTD SVG 1.1//EN" "http://www.w3.org/Graphics/SVG/1.1/DTD/svg11.dtd">
<!-- Created with Vectornator (http://vectornator.io/) -->
<svg height="100%" stroke-miterlimit="10" style="fill-rule:nonzero;clip-rule:evenodd;stroke-linecap:round;stroke-linejoin:round;" version="1.1" viewBox="0 0 96.0438 193.146" width="100%" xml:space="preserve" xmlns="http://www.w3.org/2000/svg" xmlns:xlink="http://www.w3.org/1999/xlink">
<defs>
<linearGradient gradientTransform="matrix(1 0 0 1 96.6223 20.0681)" gradientUnits="userSpaceOnUse" id="LinearGradient" x1="-0.696437" x2="-0.696437" y1="29.9324" y2="52.2019">
<stop offset="0" stop-color="#455d80"/>
<stop offset="0.2" stop-color="#19365e"/>
<stop offset="0.8" stop-color="#19365e"/>
<stop offset="1" stop-color="#455d80"/>
</linearGradient>
<linearGradient gradientTransform="matrix(1 0 0 1 3.48518 15.1669)" gradientUnits="userSpaceOnUse" id="LinearGradient_2" x1="-0.696437" x2="-0.696437" y1="29.9324" y2="43.6626">
<stop offset="0" stop-color="#455d80"/>
<stop offset="0.2" stop-color="#19365e"/>
<stop offset="0.8" stop-color="#19365e"/>
<stop offset="1" stop-color="#455d80"/>
</linearGradient>
<linearGradient gradientTransform="matrix(1 0 0 1 3.48518 33.6975)" gradientUnits="userSpaceOnUse" id="LinearGradient_3" x1="-0.696437" x2="-0.696437" y1="29.9324" y2="43.6626">
<stop offset="0" stop-color="#455d80"/>
<stop offset="0.2" stop-color="#19365e"/>
<stop offset="0.8" stop-color="#19365e"/>
<stop offset="1" stop-color="#455d80"/>
</linearGradient>
<linearGradient gradientTransform="matrix(1 0 0 1 3.48518 1.09894)" gradientUnits="userSpaceOnUse" id="LinearGradient_4" x1="-0.696437" x2="-0.696437" y1="29.9324" y2="36.8393">
<stop offset="0" stop-color="#455d80"/>
<stop offset="0.2" stop-color="#19365e"/>
<stop offset="0.8" stop-color="#19365e"/>
<stop offset="1" stop-color="#455d80"/>
</linearGradient>
</defs>
<g id="Untitled">
<path d="M93.4704 49.7205L95.7105 49.7205C95.8298 49.7205 95.9259 49.8165 95.9259 49.9358L95.9259 72.2383C95.9259 72.3576 95.8298 72.4536 95.7105 72.4536L93.4704 72.4536C93.3511 72.4536 93.255 72.3576 93.255 72.2383L93.255 49.9358C93.255 49.8165 93.3511 49.7205 93.4704 49.7205Z" fill="#12284a" fill-rule="evenodd" opacity="1" stroke="none"/>
<path d="M93.4704 50.0005L95.7105 50.0005C95.8298 50.0005 95.9259 50.0965 95.9259 50.2159L95.9259 72.0444C95.9259 72.1637 95.8298 72.2598 95.7105 72.2598L93.4704 72.2598C93.3511 72.2598 93.255 72.1637 93.255 72.0444L93.255 50.2159C93.255 50.0965 93.3511 50.0005 93.4704 50.0005Z" fill="url(#LinearGradient)" fill-rule="evenodd" opacity="1" stroke="none"/>
<path d="M0.333272 44.8193L2.57335 44.8193C2.69268 44.8193 2.78874 44.9153 2.78874 45.0347L2.78874 58.808C2.78874 58.9273 2.69264 59.0234 2.57335 59.0234L0.333272 59.0234C0.213942 59.0234 0.117882 58.9273 0.117882 58.808L0.117882 45.0347C0.117882 44.9153 0.213982 44.8193 0.333272 44.8193Z" fill="#12284a" fill-rule="evenodd" opacity="1" stroke="none"/>
<path d="M0.333272 45.0993L2.57335 45.0993C2.69268 45.0993 2.78874 45.1954 2.78874 45.3147L2.78874 58.6141C2.78874 58.7334 2.69264 58.8295 2.57335 58.8295L0.333272 58.8295C0.213942 58.8295 0.117882 58.7334 0.117882 58.6141L0.117882 45.3147C0.117882 45.1953 0.213982 45.0993 0.333272 45.0993Z" fill="url(#LinearGradient_2)" fill-rule="evenodd" opacity="1" stroke="none"/>
<path d="M0.333272 63.3499L2.57335 63.3499C2.69268 63.3499 2.78874 63.4459 2.78874 63.5653L2.78874 77.3386C2.78874 77.4579 2.69264 77.5539 2.57335 77.5539L0.333272 77.5539C0.213942 77.5539 0.117882 77.4579 0.117882 77.3386L0.117882 63.5653C0.117882 63.4459 0.213982 63.3499 0.333272 63.3499Z" fill="#12284a" fill-rule="evenodd" opacity="1" stroke="none"/>
<path d="M0.333272 63.6299L2.57335 63.6299C2.69268 63.6299 2.78874 63.7259 2.78874 63.8453L2.78874 77.1447C2.78874 77.264 2.69264 77.3601 2.57335 77.3601L0.333272 77.3601C0.213942 77.3601 0.117882 77.264 0.117882 77.1447L0.117882 63.8453C0.117882 63.7259 0.213982 63.6299 0.333272 63.6299Z" fill="url(#LinearGradient_3)" fill-rule="evenodd" opacity="1" stroke="none"/>
<path d="M0.333272 30.7513L2.57336 30.7513C2.69231 30.7513 2.78875 30.8478 2.78875 30.9667L2.78875 37.9167C2.78875 38.0357 2.69231 38.1321 2.57336 38.1321L0.333272 38.1321C0.214314 38.1321 0.117879 38.0357 0.117879 37.9167L0.117879 30.9667C0.117879 30.8478 0.214314 30.7513 0.333272 30.7513Z" fill="#12284a" fill-rule="evenodd" opacity="1" stroke="none"/>
<path d="M0.333272 31.0313L2.57336 31.0313C2.69231 31.0313 2.78875 31.1278 2.78875 31.2467L2.78875 37.7229C2.78875 37.8418 2.69231 37.9383 2.57336 37.9383L0.333272 37.9383C0.214314 37.9383 0.117879 37.8418 0.117879 37.7229L0.117879 31.2467C0.117879 31.1278 0.214314 31.0313 0.333272 31.0313Z" fill="url(#LinearGradient_4)" fill-rule="evenodd" opacity="1" stroke="none"/>
<path d="M15.6985 0.221519L80.3452 0.221519C88.4758 0.221517 95.067 6.81269 95.067 14.9433L95.067 178.203C95.067 186.333 88.4758 192.924 80.3452 192.924L15.6985 192.924C7.56791 192.924 0.976733 186.333 0.976736 178.203L0.976736 14.9433C0.976734 6.81269 7.56791 0.221519 15.6985 0.221519Z" fill="#455d80" fill-rule="evenodd" opacity="1" stroke="#12284a" stroke-linecap="round" stroke-linejoin="round" stroke-width="0.264583"/>
<g opacity="1">
<clipPath id="ClipPath">
<path d="M15.6985 0.221519L80.3452 0.221519C88.4758 0.221517 95.067 6.81269 95.067 14.9433L95.067 178.203C95.067 186.333 88.4758 192.924 80.3452 192.924L15.6985 192.924C7.56792 192.924 0.976746 186.333 0.976743 178.203L0.976743 14.9433C0.976744 6.81269 7.56792 0.221519 15.6985 0.221519Z" fill-rule="evenodd"/>
</clipPath>
<g clip-path="url(#ClipPath)">
<path d="M15.6977 0.737933C7.81878 0.737933 1.49241 7.0643 1.49241 14.9433L1.49241 178.203C1.49241 186.082 7.81878 192.408 15.6977 192.408L80.346 192.408C88.225 192.408 94.5513 186.082 94.5513 178.203L94.5513 14.9433C94.5513 7.0643 88.225 0.737933 80.346 0.737933L15.6977 0.737933Z" fill="#142b4b" fill-rule="evenodd" opacity="1" stroke="none"/>
</g>
</g>
<path d="M73.9707 0.0893934L73.9707 3.25406L76.1235 3.25406L76.1235 0.0893934L73.9707 0.0893934ZM0.844382 19.3146L0.844382 21.4674L95.1993 21.4674L95.1993 19.3146L0.844382 19.3146ZM0.844382 172.014L0.844382 174.167L95.1993 174.167L95.1993 172.014L0.844382 172.014ZM19.9202 190.332L19.9202 193.056L22.0731 193.056L22.0731 190.332L19.9202 190.332Z" fill="#445b75" fill-rule="evenodd" opacity="1" stroke="none"/>
<path d="M15.9462 1.43553L80.0976 1.43553C87.7623 1.43553 93.9759 7.64907 93.9759 15.3139L93.9759 177.832C93.9759 185.497 87.7623 191.71 80.0976 191.71L15.9462 191.71C8.2814 191.71 2.06786 185.497 2.06786 177.832L2.06786 15.3139C2.06786 7.64907 8.2814 1.43553 15.9462 1.43553Z" fill="#000000" fill-rule="evenodd" opacity="1" stroke="#434343" stroke-linecap="butt" stroke-linejoin="miter" stroke-width="0.132292"/>
</g>
<g id="g2170">
<path d="M55.7122 7.03778C55.7122 6.07307 56.4943 5.29101 57.459 5.29101C58.4237 5.29101 59.2058 6.07307 59.2058 7.03778C59.2058 8.00249 58.4237 8.78454 57.459 8.78454C56.4943 8.78454 55.7122 8.00249 55.7122 7.03778Z" fill="#161616" fill-rule="evenodd" opacity="1" stroke="none"/>
<path d="M56.3816 7.03778C56.3816 6.44273 56.864 5.96035 57.459 5.96035C58.054 5.96035 58.5364 6.44273 58.5364 7.03778C58.5364 7.63283 58.054 8.11521 57.459 8.11521C56.864 8.11521 56.3816 7.63283 56.3816 7.03778Z" fill="#0a0d13" fill-rule="evenodd" opacity="1" stroke="none"/>
<path d="M56.6381 7.03778C56.6381 6.5844 57.0056 6.21686 57.459 6.21686C57.9124 6.21686 58.2799 6.5844 58.2799 7.03778C58.2799 7.49116 57.9124 7.8587 57.459 7.8587C57.0056 7.8587 56.6381 7.49116 56.6381 7.03778Z" fill="#091427" fill-rule="evenodd" opacity="1" stroke="none"/>
<path d="M56.8939 6.48856C56.7965 6.49881 56.6582 6.64739 56.648 6.93943C56.6377 7.23147 56.7658 7.39029 56.8375 7.39029C56.9093 7.39029 57.2064 6.96505 56.8939 6.48856Z" fill="#235a91" fill-opacity="0.556075" fill-rule="evenodd" opacity="1" stroke="none"/>
<path d="M57.593 6.3863C57.4394 6.43354 57.4099 6.68159 57.4158 6.82333C57.4217 6.96507 57.6225 7.33714 57.8647 7.25446C58.1068 7.17178 58.1481 6.86467 58.0477 6.65797C57.9473 6.45126 57.7643 6.30361 57.593 6.3863Z" fill="#235a91" fill-opacity="0.556075" fill-rule="evenodd" opacity="1" stroke="none"/>
</g>
<g id="g2051">
<g opacity="1"/>
<path d="M44.0945 6.0561C43.5972 6.0561 43.197 6.45629 43.197 6.95361C43.197 7.45093 43.5972 7.85112 44.0945 7.85112L52.5257 7.85112C53.023 7.85112 53.4232 7.45093 53.4232 6.95361C53.4232 6.45629 53.023 6.0561 52.5257 6.0561L44.0945 6.0561Z" fill="none" fill-rule="evenodd" opacity="1" stroke="#292929" stroke-linecap="round" stroke-linejoin="miter" stroke-width="0.0659289"/>
<g opacity="1">
<clipPath id="ClipPath_2">
<path d="M44.0945 6.05611C43.5972 6.05611 43.197 6.4563 43.197 6.95362C43.197 7.45094 43.5972 7.85113 44.0945 7.85113L52.5257 7.85113C53.023 7.85113 53.4232 7.45094 53.4232 6.95362C53.4232 6.4563 53.023 6.05611 52.5257 6.05611L44.0945 6.05611Z" fill-rule="evenodd"/>
</clipPath>
<g clip-path="url(#ClipPath_2)">
<path d="M43.3193 6.95362C43.3193 7.11166 43.2278 7.23979 43.115 7.23978C43.0022 7.23978 42.9108 7.11166 42.9108 6.95362C42.9108 6.79558 43.0022 6.66746 43.115 6.66746C43.2278 6.66745 43.3193 6.79557 43.3193 6.95362Z" fill="#ffffff" fill-rule="evenodd" opacity="1" stroke="none"/>
<path d="M53.4232 6.95362C53.4232 7.11166 53.3317 7.23978 53.2189 7.23978C53.1061 7.23979 53.0147 7.11166 53.0147 6.95362C53.0147 6.79557 53.1061 6.66745 53.2189 6.66746C53.3317 6.66746 53.4232 6.79558 53.4232 6.95362Z" fill="#ffffff" fill-rule="evenodd" opacity="1" stroke="none"/>
</g>
</g>
</g>
<g id="Untitled_2"/>
</svg>
