<svg xmlns="http://www.w3.org/2000/svg" version="1.1" viewBox="275.37 76.48 201.37 168.15"> <path d="M283.25 117.62L283.25 102.85 275.87 110.23 283.25 117.62Z" fill="#dc7628" stroke="#dc7628" stroke-width="0.2"/> <path d="M283.25 117.62L309.1 143.47 283.25 102.85 283.25 117.62Z" fill="#dc7628" stroke="#dc7628" stroke-width="0.2"/> <path d="M309.1 143.47L309.1 128.7 283.25 102.85 309.1 143.47Z" fill="#dc7628" stroke="#dc7628" stroke-width="0.2"/> <path d="M309.1 128.7L319.54 244.1 309.1 77 309.1 128.7Z" fill="#dc7628" stroke="#dc7628" stroke-width="0.2"/> <path d="M319.54 102.22L319.54 87.45 309.1 77 319.54 102.22Z" fill="#dc7628" stroke="#dc7628" stroke-width="0.2"/> <path d="M319.54 244.1L350.88 244.1 319.54 233.66 319.54 244.1Z" fill="#dc7628" stroke="#dc7628" stroke-width="0.2"/> <path d="M350.88 244.1L350.88 233.66 319.54 233.66 350.88 244.1Z" fill="#dc7628" stroke="#dc7628" stroke-width="0.2"/> <path d="M319.54 153.91L366.8 201.17 319.54 139.14 319.54 153.91Z" fill="#dc7628" stroke="#dc7628" stroke-width="0.2"/> <path d="M366.8 201.17L366.8 186.4 319.54 139.14 366.8 201.17Z" fill="#dc7628" stroke="#dc7628" stroke-width="0.2"/> <path d="M366.8 201.17L374.19 193.79 366.8 186.4 366.8 201.17Z" fill="#dc7628" stroke="#dc7628" stroke-width="0.2"/> <path d="M319.54 102.22L392.65 175.32 319.54 87.45 319.54 102.22Z" fill="#dc7628" stroke="#dc7628" stroke-width="0.2"/> <path d="M392.65 175.32L392.65 160.55 319.54 87.45 392.65 175.32Z" fill="#dc7628" stroke="#dc7628" stroke-width="0.2"/> <path d="M392.65 175.32L444.87 123.1 392.65 160.55 392.65 175.32Z" fill="#dc7628" stroke="#dc7628" stroke-width="0.2"/> <path d="M444.87 123.1L444.87 108.33 392.65 160.55 444.87 123.1Z" fill="#dc7628" stroke="#dc7628" stroke-width="0.2"/> <path d="M444.87 123.1L455.31 244.1 444.87 108.33 444.87 123.1Z" fill="#dc7628" stroke="#dc7628" stroke-width="0.2"/> <path d="M455.31 112.66L455.31 97.89 444.87 108.33 455.31 112.66Z" fill="#dc7628" stroke="#dc7628" stroke-width="0.2"/> <path d="M455.31 112.66L465.76 102.22 455.31 97.89 455.31 112.66Z" fill="#dc7628" stroke="#dc7628" stroke-width="0.2"/> <path d="M465.76 102.22L465.76 87.45 455.31 97.89 465.76 102.22Z" fill="#dc7628" stroke="#dc7628" stroke-width="0.2"/> <path d="M465.76 102.22L476.2 244.1 465.76 87.45 465.76 102.22Z" fill="#dc7628" stroke="#dc7628" stroke-width="0.2"/> <path d="M476.2 244.1L476.2 77 465.76 87.45 476.2 244.1Z" fill="#dc7628" stroke="#dc7628" stroke-width="0.2"/> <path d="M309.1 244.1L319.54 244.1 309.1 143.47 309.1 244.1Z" fill="#dc7628" stroke="#dc7628" stroke-width="0.2"/> <path d="M309.1 143.47L319.54 244.1 309.1 128.7 309.1 143.47Z" fill="#dc7628" stroke="#dc7628" stroke-width="0.2"/> <path d="M319.54 244.1L319.54 233.66 309.1 77 319.54 244.1Z" fill="#dc7628" stroke="#dc7628" stroke-width="0.2"/> <path d="M319.54 233.66L319.54 153.91 309.1 77 319.54 233.66Z" fill="#dc7628" stroke="#dc7628" stroke-width="0.2"/> <path d="M319.54 153.91L319.54 139.14 309.1 77 319.54 153.91Z" fill="#dc7628" stroke="#dc7628" stroke-width="0.2"/> <path d="M319.54 139.14L319.54 102.22 309.1 77 319.54 139.14Z" fill="#dc7628" stroke="#dc7628" stroke-width="0.2"/> <path d="M444.87 244.1L455.31 244.1 444.87 123.1 444.87 244.1Z" fill="#dc7628" stroke="#dc7628" stroke-width="0.2"/> <path d="M455.31 244.1L455.31 112.66 444.87 108.33 455.31 244.1Z" fill="#dc7628" stroke="#dc7628" stroke-width="0.2"/> <path d="M465.76 244.1L476.2 244.1 465.76 102.22 465.76 244.1Z" fill="#dc7628" stroke="#dc7628" stroke-width="0.2"/> </svg>