<svg style="fill-rule:nonzero;clip-rule:evenodd;" version="1.1" xml:space="preserve" xmlns="http://www.w3.org/2000/svg" xmlns:xlink="http://www.w3.org/1999/xlink" viewBox="17.54 27.92 129.76 120.06">
<defs/>
<path d="M22.9712 54.6466L22.9712 45.1855L18.2438 49.9129L22.9712 54.6466Z" fill="#dc7628" fill-rule="evenodd" stroke="#dc7628" stroke-width="0.2"/>
<path d="M22.9712 54.6466L39.5297 71.2052L22.9712 45.1855L22.9712 54.6466Z" fill="#dc7628" fill-rule="evenodd" stroke="#dc7628" stroke-width="0.2"/>
<path d="M39.5297 71.2052L39.5297 61.7441L22.9712 45.1855L39.5297 71.2052Z" fill="#dc7628" fill-rule="evenodd" stroke="#dc7628" stroke-width="0.2"/>
<path d="M39.5297 61.7441L46.2172 135.665L39.5297 28.6269L39.5297 61.7441Z" fill="#dc7628" fill-rule="evenodd" stroke="#dc7628" stroke-width="0.2"/>
<path d="M46.2172 44.7819L46.2172 35.3208L39.5297 28.6269L46.2172 44.7819Z" fill="#dc7628" fill-rule="evenodd" stroke="#dc7628" stroke-width="0.2"/>
<path d="M46.2172 135.665L66.2925 135.665L46.2172 128.978L46.2172 135.665Z" fill="#dc7628" fill-rule="evenodd" stroke="#dc7628" stroke-width="0.2"/>
<path d="M66.2925 135.665L66.2925 128.978L46.2172 128.978L66.2925 135.665Z" fill="#dc7628" fill-rule="evenodd" stroke="#dc7628" stroke-width="0.2"/>
<path d="M46.2172 77.8927L76.4903 108.166L46.2172 68.4316L46.2172 77.8927Z" fill="#dc7628" fill-rule="evenodd" stroke="#dc7628" stroke-width="0.2"/>
<path d="M76.4903 108.166L76.4903 98.7046L46.2172 68.4316L76.4903 108.166Z" fill="#dc7628" fill-rule="evenodd" stroke="#dc7628" stroke-width="0.2"/>
<path d="M76.4903 108.166L81.2241 103.438L76.4903 98.7046L76.4903 108.166Z" fill="#dc7628" fill-rule="evenodd" stroke="#dc7628" stroke-width="0.2"/>
<path d="M46.2172 44.7819L93.0489 91.6072L46.2172 35.3208L46.2172 44.7819Z" fill="#dc7628" fill-rule="evenodd" stroke="#dc7628" stroke-width="0.2"/>
<path d="M93.0489 91.6072L93.0489 82.146L46.2172 35.3208L93.0489 91.6072Z" fill="#dc7628" fill-rule="evenodd" stroke="#dc7628" stroke-width="0.2"/>
<path d="M93.0489 91.6072L126.499 58.1569L93.0489 82.146L93.0489 91.6072Z" fill="#dc7628" fill-rule="evenodd" stroke="#dc7628" stroke-width="0.2"/>
<path d="M126.499 58.1569L126.499 48.6958L93.0489 82.146L126.499 58.1569Z" fill="#dc7628" fill-rule="evenodd" stroke="#dc7628" stroke-width="0.2"/>
<path d="M126.499 58.1569L133.187 135.665L126.499 48.6958L126.499 58.1569Z" fill="#dc7628" fill-rule="evenodd" stroke="#dc7628" stroke-width="0.2"/>
<path d="M133.187 51.4694L133.187 42.0083L126.499 48.6958L133.187 51.4694Z" fill="#dc7628" fill-rule="evenodd" stroke="#dc7628" stroke-width="0.2"/>
<path d="M133.187 51.4694L139.881 44.7819L133.187 42.0083L133.187 51.4694Z" fill="#dc7628" fill-rule="evenodd" stroke="#dc7628" stroke-width="0.2"/>
<path d="M139.881 44.7819L139.881 35.3208L133.187 42.0083L139.881 44.7819Z" fill="#dc7628" fill-rule="evenodd" stroke="#dc7628" stroke-width="0.2"/>
<path d="M139.881 44.7819L146.568 135.665L139.881 35.3208L139.881 44.7819Z" fill="#dc7628" fill-rule="evenodd" stroke="#dc7628" stroke-width="0.2"/>
<path d="M146.568 135.665L146.568 28.6269L139.881 35.3208L146.568 135.665Z" fill="#dc7628" fill-rule="evenodd" stroke="#dc7628" stroke-width="0.2"/>
<path d="M39.5297 135.665L46.2172 135.665L39.5297 71.2052L39.5297 135.665Z" fill="#dc7628" fill-rule="evenodd" stroke="#dc7628" stroke-width="0.2"/>
<path d="M39.5297 71.2052L46.2172 135.665L39.5297 61.7441L39.5297 71.2052Z" fill="#dc7628" fill-rule="evenodd" stroke="#dc7628" stroke-width="0.2"/>
<path d="M46.2172 135.665L46.2172 128.978L39.5297 28.6269L46.2172 135.665Z" fill="#dc7628" fill-rule="evenodd" stroke="#dc7628" stroke-width="0.2"/>
<path d="M46.2172 128.978L46.2172 77.8927L39.5297 28.6269L46.2172 128.978Z" fill="#dc7628" fill-rule="evenodd" stroke="#dc7628" stroke-width="0.2"/>
<path d="M46.2172 77.8927L46.2172 68.4316L39.5297 28.6269L46.2172 77.8927Z" fill="#dc7628" fill-rule="evenodd" stroke="#dc7628" stroke-width="0.2"/>
<path d="M46.2172 68.4316L46.2172 44.7819L39.5297 28.6269L46.2172 68.4316Z" fill="#dc7628" fill-rule="evenodd" stroke="#dc7628" stroke-width="0.2"/>
<path d="M126.499 135.665L133.187 135.665L126.499 58.1569L126.499 135.665Z" fill="#dc7628" fill-rule="evenodd" stroke="#dc7628" stroke-width="0.2"/>
<path d="M133.187 135.665L133.187 51.4694L126.499 48.6958L133.187 135.665Z" fill="#dc7628" fill-rule="evenodd" stroke="#dc7628" stroke-width="0.2"/>
<path d="M139.881 135.665L146.568 135.665L139.881 44.7819L139.881 135.665Z" fill="#dc7628" fill-rule="evenodd" stroke="#dc7628" stroke-width="0.2"/>
<path d="M42.7373 138.124L42.7373 138.124L42.6912 138.139C42.7629 138.385 42.7988 138.631 42.7988 138.877L42.7988 138.877L42.7988 147.963L41.5074 147.963L41.5074 137.201L43.5982 137.201L46.8882 145.795C46.9496 145.969 46.9804 146.113 46.9804 146.226L46.9804 146.226L47.0419 146.226C47.0419 146.113 47.0726 145.969 47.1341 145.795L47.1341 145.795L50.4394 137.201L52.5149 137.201L52.5149 147.963L51.2235 147.963L51.2235 138.877C51.2235 138.631 51.2594 138.385 51.3311 138.139L51.3311 138.139L51.285 138.124L47.5031 147.963L46.5192 147.963C46.0477 146.805 45.5993 145.682 45.174 144.596C44.7487 143.51 44.3976 142.6 44.1209 141.867C43.8442 141.134 43.6033 140.489 43.3984 139.93C43.1934 139.371 43.0345 138.938 42.9218 138.631C42.809 138.324 42.7475 138.154 42.7373 138.124Z" fill="#fff" fill-rule="evenodd"  stroke="none"/>
<path d="M60.3861 147.348L60.3861 147.348L60.3246 147.348C60.3246 147.471 60.2119 147.599 59.9864 147.732L59.9864 147.732C59.8019 147.845 59.6764 147.911 59.6098 147.932C59.5431 147.952 59.4176 147.963 59.2331 147.963L59.2331 147.963L56.6042 147.963C56.3583 147.963 56.1123 147.86 55.8663 147.655L55.8663 147.655L55.4973 147.348C55.2514 147.143 55.1284 146.887 55.1284 146.579L55.1284 146.579L55.1284 144.734C55.1284 144.427 55.2514 144.171 55.4973 143.966L55.4973 143.966L55.8663 143.658C56.1123 143.453 56.3583 143.351 56.6042 143.351L56.6042 143.351L59.3561 143.351C59.5508 143.351 59.6738 143.358 59.7251 143.374C59.7763 143.389 59.8429 143.433 59.9249 143.504L59.9249 143.504C60.0479 143.607 60.1094 143.709 60.1094 143.812L60.1094 143.812L60.1709 143.812L60.1709 141.982C60.1709 141.829 60.1632 141.729 60.1478 141.683C60.1325 141.637 60.0786 141.578 59.9864 141.506C59.8942 141.434 59.8224 141.391 59.7712 141.375C59.7199 141.36 59.6021 141.352 59.4176 141.352L59.4176 141.352L56.9271 141.352C56.7426 141.352 56.617 141.365 56.5504 141.391C56.4838 141.416 56.3583 141.506 56.1738 141.66L56.1738 141.66L55.2514 140.891L55.6203 140.583C55.8048 140.43 55.9304 140.34 55.997 140.314C56.0636 140.289 56.1891 140.276 56.3736 140.276L56.3736 140.276L59.9864 140.276C60.2324 140.276 60.4784 140.378 60.7243 140.583L60.7243 140.583L61.0933 140.891C61.3393 141.096 61.4623 141.352 61.4623 141.66L61.4623 141.66L61.4623 146.256C61.4623 146.41 61.47 146.51 61.4853 146.556C61.5007 146.602 61.5545 146.661 61.6468 146.733C61.739 146.805 61.7928 146.864 61.8082 146.91C61.8235 146.956 61.8312 147.056 61.8312 147.209L61.8312 147.209L61.8312 147.963L61.2932 147.963C61.1087 147.963 60.9831 147.95 60.9165 147.924C60.8499 147.899 60.7551 147.835 60.6321 147.732L60.6321 147.732C60.4681 147.599 60.3861 147.471 60.3861 147.348ZM56.4197 145.057L56.4197 145.057L56.4197 146.256C56.4197 146.41 56.4274 146.51 56.4428 146.556C56.4582 146.602 56.512 146.661 56.6042 146.733C56.6965 146.805 56.7682 146.848 56.8195 146.864C56.8707 146.879 56.9886 146.887 57.1731 146.887L57.1731 146.887L59.0486 146.887C59.2331 146.887 59.3587 146.876 59.4253 146.856C59.4919 146.835 59.6174 146.769 59.8019 146.656C59.9864 146.543 60.094 146.461 60.1248 146.41C60.1555 146.359 60.1709 146.256 60.1709 146.103L60.1709 146.103L60.1709 145.057C60.1709 144.903 60.1632 144.803 60.1478 144.757C60.1325 144.711 60.0786 144.652 59.9864 144.581C59.8942 144.509 59.8224 144.465 59.7712 144.45C59.7199 144.434 59.6021 144.427 59.4176 144.427L59.4176 144.427L57.1731 144.427C56.9886 144.427 56.8707 144.434 56.8195 144.45C56.7682 144.465 56.6965 144.509 56.6042 144.581C56.512 144.652 56.4582 144.711 56.4428 144.757C56.4274 144.803 56.4197 144.903 56.4197 145.057Z" fill="#fff" fill-rule="evenodd" stroke="none"/>
<path d="M63.6761 141.029L63.6761 140.276L64.2141 140.276C64.3986 140.276 64.5242 140.289 64.5908 140.314C64.6574 140.34 64.7522 140.404 64.8752 140.507L64.8752 140.507C65.0392 140.64 65.1212 140.768 65.1212 140.891L65.1212 140.891L65.1827 140.891C65.1827 140.768 65.2954 140.64 65.5209 140.507L65.5209 140.507C65.7054 140.394 65.8309 140.327 65.8975 140.307C65.9642 140.286 66.0897 140.276 66.2742 140.276L66.2742 140.276L67.6885 140.276C67.9345 140.276 68.1805 140.378 68.4265 140.583L68.4265 140.583L68.7954 140.891L67.873 141.66L67.6885 141.506C67.5963 141.434 67.5246 141.391 67.4733 141.375C67.4221 141.36 67.3042 141.352 67.1197 141.352L67.1197 141.352L66.4587 141.352C66.2742 141.352 66.1486 141.362 66.082 141.383C66.0154 141.403 65.8898 141.47 65.7054 141.583C65.5209 141.695 65.4133 141.777 65.3825 141.829C65.3518 141.88 65.3364 141.982 65.3364 142.136L65.3364 142.136L65.3364 147.963L64.045 147.963L64.045 141.982C64.045 141.829 64.0373 141.729 64.022 141.683C64.0066 141.637 63.9528 141.578 63.8605 141.506C63.7683 141.434 63.7145 141.375 63.6991 141.329C63.6837 141.283 63.6761 141.183 63.6761 141.029L63.6761 141.029Z" fill="#fff" fill-rule="evenodd"  stroke="none"/>
<path d="M71.3936 147.963L70.1022 147.963L70.1022 136.586L71.3936 136.586L71.3936 143.581L72.6849 143.581L74.0686 141.321C74.1813 141.147 74.2659 141.029 74.3222 140.968C74.3786 140.906 74.4837 140.819 74.6374 140.706L74.6374 140.706L74.9295 140.507C75.0935 140.394 75.2088 140.327 75.2754 140.307C75.342 140.286 75.4676 140.276 75.652 140.276L75.652 140.276L75.9595 140.276L75.9595 140.876C75.9595 141.111 75.9441 141.257 75.9134 141.314C75.8826 141.37 75.775 141.449 75.5905 141.552L75.5905 141.552L75.4214 141.644C75.2677 141.736 75.1652 141.811 75.114 141.867C75.0627 141.923 74.9756 142.039 74.8526 142.213L74.8526 142.213L73.8533 143.766C73.7611 143.909 73.6689 144.007 73.5766 144.058L73.5766 144.058L73.5766 144.119C73.6689 144.14 73.7867 144.258 73.9302 144.473L73.9302 144.473L76.1747 147.963L74.745 147.963L72.7003 144.657L71.3936 144.657L71.3936 147.963Z" fill="#fff" fill-rule="evenodd" stroke="none"/>
<path d="" fill="#fff" fill-rule="evenodd" stroke="none"/>
<path d="M85.322 147.01L85.322 147.01L85.3835 147.01C85.3835 146.948 85.4142 146.815 85.4757 146.61L85.4757 146.61L88.3967 137.201L89.7649 137.201L86.1983 147.963L84.5072 147.963L80.9405 137.201L82.3088 137.201L85.2298 146.61C85.2913 146.815 85.322 146.948 85.322 147.01Z" fill="#fff" fill-rule="evenodd" stroke="none"/>
<path d="M96.3294 147.348L96.3294 147.348L96.268 147.348C96.268 147.471 96.1552 147.599 95.9297 147.732L95.9297 147.732C95.7453 147.845 95.6197 147.911 95.5531 147.932C95.4865 147.952 95.3609 147.963 95.1764 147.963L95.1764 147.963L92.5476 147.963C92.3016 147.963 92.0556 147.86 91.8096 147.655L91.8096 147.655L91.4407 147.348C91.1947 147.143 91.0717 146.887 91.0717 146.579L91.0717 146.579L91.0717 144.734C91.0717 144.427 91.1947 144.171 91.4407 143.966L91.4407 143.966L91.8096 143.658C92.0556 143.453 92.3016 143.351 92.5476 143.351L92.5476 143.351L95.2994 143.351C95.4942 143.351 95.6171 143.358 95.6684 143.374C95.7196 143.389 95.7862 143.433 95.8682 143.504L95.8682 143.504C95.9912 143.607 96.0527 143.709 96.0527 143.812L96.0527 143.812L96.1142 143.812L96.1142 141.982C96.1142 141.829 96.1065 141.729 96.0912 141.683C96.0758 141.637 96.022 141.578 95.9297 141.506C95.8375 141.434 95.7658 141.391 95.7145 141.375C95.6633 141.36 95.5454 141.352 95.3609 141.352L95.3609 141.352L92.8704 141.352C92.6859 141.352 92.5604 141.365 92.4938 141.391C92.4271 141.416 92.3016 141.506 92.1171 141.66L92.1171 141.66L91.1947 140.891L91.5637 140.583C91.7481 140.43 91.8737 140.34 91.9403 140.314C92.0069 140.289 92.1325 140.276 92.317 140.276L92.317 140.276L95.9297 140.276C96.1757 140.276 96.4217 140.378 96.6677 140.583L96.6677 140.583L97.0366 140.891C97.2826 141.096 97.4056 141.352 97.4056 141.66L97.4056 141.66L97.4056 146.256C97.4056 146.41 97.4133 146.51 97.4287 146.556C97.444 146.602 97.4978 146.661 97.5901 146.733C97.6823 146.805 97.7361 146.864 97.7515 146.91C97.7669 146.956 97.7746 147.056 97.7746 147.209L97.7746 147.209L97.7746 147.963L97.2365 147.963C97.052 147.963 96.9265 147.95 96.8598 147.924C96.7932 147.899 96.6984 147.835 96.5754 147.732L96.5754 147.732C96.4114 147.599 96.3294 147.471 96.3294 147.348ZM92.3631 145.057L92.3631 145.057L92.3631 146.256C92.3631 146.41 92.3708 146.51 92.3861 146.556C92.4015 146.602 92.4553 146.661 92.5476 146.733C92.6398 146.805 92.7115 146.848 92.7628 146.864C92.814 146.879 92.9319 146.887 93.1164 146.887L93.1164 146.887L94.9919 146.887C95.1764 146.887 95.302 146.876 95.3686 146.856C95.4352 146.835 95.5608 146.769 95.7453 146.656C95.9297 146.543 96.0373 146.461 96.0681 146.41C96.0988 146.359 96.1142 146.256 96.1142 146.103L96.1142 146.103L96.1142 145.057C96.1142 144.903 96.1065 144.803 96.0912 144.757C96.0758 144.711 96.022 144.652 95.9297 144.581C95.8375 144.509 95.7658 144.465 95.7145 144.45C95.6633 144.434 95.5454 144.427 95.3609 144.427L95.3609 144.427L93.1164 144.427C92.9319 144.427 92.814 144.434 92.7628 144.45C92.7115 144.465 92.6398 144.509 92.5476 144.581C92.4553 144.652 92.4015 144.711 92.3861 144.757C92.3708 144.803 92.3631 144.903 92.3631 145.057Z" fill="#fff" fill-rule="evenodd" stroke="none"/>
<path d="M99.6963 146.825L99.6963 136.586L100.988 136.586L100.988 146.041C100.988 146.277 100.998 146.423 101.018 146.479C101.039 146.536 101.111 146.605 101.234 146.687L101.234 146.687C101.367 146.789 101.446 146.869 101.472 146.925C101.498 146.981 101.51 147.127 101.51 147.363L101.51 147.363L101.51 147.963L101.049 147.963C100.854 147.963 100.726 147.952 100.665 147.932C100.603 147.911 100.496 147.85 100.342 147.747L100.342 147.747L100.004 147.517C99.85 147.414 99.7603 147.332 99.7347 147.271C99.7091 147.209 99.6963 147.061 99.6963 146.825L99.6963 146.825Z" fill="#fff" fill-rule="evenodd"  stroke="none"/>
<path d="M109.212 146.579L109.212 146.579L110.135 147.348L109.766 147.655C109.581 147.809 109.456 147.899 109.389 147.924C109.323 147.95 109.197 147.963 109.013 147.963L109.013 147.963L104.908 147.963C104.662 147.963 104.416 147.86 104.17 147.655L104.17 147.655L103.801 147.348C103.555 147.143 103.432 146.887 103.432 146.579L103.432 146.579L103.432 141.66C103.432 141.352 103.555 141.096 103.801 140.891L103.801 140.891L104.17 140.583C104.416 140.378 104.662 140.276 104.908 140.276L104.908 140.276L108.49 140.276C108.695 140.276 108.941 140.378 109.228 140.583L109.228 140.583L109.612 140.891C109.858 141.075 109.981 141.332 109.981 141.66L109.981 141.66L109.981 144.811L104.723 144.811L104.723 146.256C104.723 146.41 104.731 146.51 104.746 146.556C104.762 146.602 104.816 146.661 104.908 146.733C105 146.805 105.072 146.848 105.123 146.864C105.174 146.879 105.292 146.887 105.477 146.887L105.477 146.887L108.459 146.887C108.644 146.887 108.769 146.874 108.836 146.848C108.902 146.823 109.028 146.733 109.212 146.579ZM104.723 143.812L108.69 143.812L108.69 141.982C108.69 141.829 108.682 141.729 108.667 141.683C108.651 141.637 108.598 141.578 108.505 141.506C108.413 141.434 108.341 141.391 108.29 141.375C108.239 141.36 108.121 141.352 107.936 141.352L107.936 141.352L105.477 141.352C105.292 141.352 105.174 141.36 105.123 141.375C105.072 141.391 105 141.434 104.908 141.506C104.816 141.578 104.762 141.637 104.746 141.683C104.731 141.729 104.723 141.829 104.723 141.982L104.723 141.982L104.723 143.812Z" fill="#fff" fill-rule="evenodd" stroke="none"/>
<path d="M111.826 141.029L111.826 140.276L112.364 140.276C112.549 140.276 112.674 140.289 112.741 140.314C112.807 140.34 112.902 140.404 113.025 140.507L113.025 140.507C113.189 140.64 113.271 140.768 113.271 140.891L113.271 140.891L113.333 140.891C113.333 140.768 113.445 140.64 113.671 140.507L113.671 140.507C113.855 140.394 113.981 140.327 114.047 140.307C114.114 140.286 114.24 140.276 114.424 140.276L114.424 140.276L117.145 140.276C117.391 140.276 117.637 140.378 117.883 140.583L117.883 140.583L118.252 140.891C118.498 141.096 118.621 141.352 118.621 141.66L118.621 141.66L118.621 147.963L117.33 147.963L117.33 141.982C117.33 141.829 117.322 141.729 117.307 141.683C117.291 141.637 117.237 141.578 117.145 141.506C117.053 141.434 116.981 141.391 116.93 141.375C116.879 141.36 116.761 141.352 116.576 141.352L116.576 141.352L114.609 141.352C114.424 141.352 114.299 141.362 114.232 141.383C114.165 141.403 114.04 141.47 113.855 141.583C113.671 141.695 113.563 141.777 113.532 141.829C113.502 141.88 113.486 141.982 113.486 142.136L113.486 142.136L113.486 147.963L112.195 147.963L112.195 141.982C112.195 141.829 112.187 141.729 112.172 141.683C112.157 141.637 112.103 141.578 112.01 141.506C111.918 141.434 111.864 141.375 111.849 141.329C111.834 141.283 111.826 141.183 111.826 141.029L111.826 141.029Z" fill="#fff" fill-rule="evenodd" stroke="none"/>
<path d="M120.942 138.124L122.234 138.124L122.234 140.276L124.202 140.276C124.335 140.378 124.414 140.458 124.44 140.514C124.466 140.571 124.478 140.717 124.478 140.952L124.478 140.952L124.478 141.352L122.234 141.352L122.234 146.256C122.234 146.41 122.242 146.51 122.257 146.556C122.272 146.602 122.326 146.661 122.418 146.733C122.511 146.805 122.582 146.848 122.634 146.864C122.685 146.879 122.803 146.887 122.987 146.887L122.987 146.887L124.386 146.887C124.519 146.989 124.599 147.068 124.624 147.125C124.65 147.181 124.663 147.327 124.663 147.563L124.663 147.563L124.663 147.963L122.418 147.963C122.172 147.963 121.926 147.86 121.68 147.655L121.68 147.655L121.311 147.348C121.065 147.143 120.942 146.887 120.942 146.579L120.942 146.579L120.942 141.352L120.205 141.352C120.071 141.25 119.992 141.17 119.966 141.114C119.941 141.057 119.928 140.911 119.928 140.676L119.928 140.676L119.928 140.276L120.942 140.276L120.942 138.124Z" fill="#fff" fill-rule="evenodd" stroke="none"/>
<path d="M127.63 140.276L127.63 147.963L126.339 147.963L126.339 140.276L127.63 140.276ZM127.768 137.878L127.768 137.878L127.768 138.001C127.768 138.195 127.761 138.318 127.745 138.37C127.73 138.421 127.681 138.482 127.599 138.554L127.599 138.554C127.517 138.636 127.328 138.677 127.03 138.677L127.03 138.677L126.954 138.677C126.728 138.677 126.59 138.672 126.538 138.662C126.487 138.651 126.426 138.616 126.354 138.554L126.354 138.554C126.282 138.482 126.239 138.421 126.223 138.37C126.208 138.318 126.2 138.195 126.2 138.001L126.2 138.001L126.2 137.878C126.2 137.683 126.208 137.56 126.223 137.509C126.239 137.457 126.287 137.396 126.369 137.324L126.369 137.324C126.431 137.263 126.487 137.227 126.538 137.217C126.59 137.206 126.728 137.201 126.954 137.201L126.954 137.201L127.015 137.201C127.322 137.201 127.522 137.242 127.615 137.324L127.615 137.324C127.686 137.396 127.73 137.457 127.745 137.509C127.761 137.56 127.768 137.683 127.768 137.878Z" fill="#fff" fill-rule="evenodd"  stroke="none"/>
<path d="M129.536 141.029L129.536 140.276L130.074 140.276C130.259 140.276 130.384 140.289 130.451 140.314C130.518 140.34 130.612 140.404 130.735 140.507L130.735 140.507C130.899 140.64 130.981 140.768 130.981 140.891L130.981 140.891L131.043 140.891C131.043 140.768 131.156 140.64 131.381 140.507L131.381 140.507C131.566 140.394 131.691 140.327 131.758 140.307C131.824 140.286 131.95 140.276 132.134 140.276L132.134 140.276L134.856 140.276C135.102 140.276 135.347 140.378 135.593 140.583L135.593 140.583L135.962 140.891C136.208 141.096 136.331 141.352 136.331 141.66L136.331 141.66L136.331 147.963L135.04 147.963L135.04 141.982C135.04 141.829 135.032 141.729 135.017 141.683C135.002 141.637 134.948 141.578 134.856 141.506C134.763 141.434 134.692 141.391 134.64 141.375C134.589 141.36 134.471 141.352 134.287 141.352L134.287 141.352L132.319 141.352C132.134 141.352 132.009 141.362 131.942 141.383C131.876 141.403 131.75 141.47 131.566 141.583C131.381 141.695 131.273 141.777 131.243 141.829C131.212 141.88 131.197 141.982 131.197 142.136L131.197 142.136L131.197 147.963L129.905 147.963L129.905 141.982C129.905 141.829 129.898 141.729 129.882 141.683C129.867 141.637 129.813 141.578 129.721 141.506C129.629 141.434 129.575 141.375 129.559 141.329C129.544 141.283 129.536 141.183 129.536 141.029L129.536 141.029Z" fill="#fff" fill-rule="evenodd" stroke="none"/>
<path d="M139.667 140.276L139.667 140.276L143.357 140.276C143.603 140.276 143.849 140.378 144.095 140.583L144.095 140.583L144.464 140.891C144.71 141.096 144.833 141.352 144.833 141.66L144.833 141.66L144.833 146.579C144.833 146.887 144.71 147.143 144.464 147.348L144.464 147.348L144.095 147.655C143.849 147.86 143.603 147.963 143.357 147.963L143.357 147.963L139.667 147.963C139.421 147.963 139.175 147.86 138.93 147.655L138.93 147.655L138.561 147.348C138.315 147.143 138.192 146.887 138.192 146.579L138.192 146.579L138.192 141.66C138.192 141.352 138.315 141.096 138.561 140.891L138.561 140.891L138.93 140.583C139.175 140.378 139.421 140.276 139.667 140.276ZM143.542 146.256L143.542 146.256L143.542 141.982C143.542 141.829 143.534 141.729 143.519 141.683C143.503 141.637 143.449 141.578 143.357 141.506C143.265 141.434 143.193 141.391 143.142 141.375C143.091 141.36 142.973 141.352 142.788 141.352L142.788 141.352L140.236 141.352C140.052 141.352 139.934 141.36 139.883 141.375C139.831 141.391 139.76 141.434 139.667 141.506C139.575 141.578 139.521 141.637 139.506 141.683C139.491 141.729 139.483 141.829 139.483 141.982L139.483 141.982L139.483 146.256C139.483 146.41 139.491 146.51 139.506 146.556C139.521 146.602 139.575 146.661 139.667 146.733C139.76 146.805 139.831 146.848 139.883 146.864C139.934 146.879 140.052 146.887 140.236 146.887L140.236 146.887L142.788 146.887C142.973 146.887 143.091 146.879 143.142 146.864C143.193 146.848 143.265 146.805 143.357 146.733C143.449 146.661 143.503 146.602 143.519 146.556C143.534 146.51 143.542 146.41 143.542 146.256Z" fill="#fff" fill-rule="evenodd" stroke="none"/>
</svg>